<svg width="123" height="123" viewBox="0 0 123 123" fill="none" xmlns="http://www.w3.org/2000/svg">
<path d="M99.4777 26.6746C96.5687 27.834 93.0313 28.5138 89.2168 28.5138" stroke="#2473FB" stroke-width="3" stroke-miterlimit="10"/>
<path d="M99.4795 45.9205V26.6667C104.128 24.8103 107.175 21.7385 107.175 18.2564C107.175 12.5923 99.1357 8 89.2186 8C79.3015 8 71.2621 12.5923 71.2621 18.2564C71.2621 21.7385 74.3095 24.8128 78.9577 26.6667V45.9205C78.9577 50.8334 75.6435 54.1692 70.9414 55.8872C66.3804 57.5513 63.5664 60.5692 63.5664 63.8026V78.2257C63.5664 84.7564 75.0509 90.0513 89.2186 90.0513C103.386 90.0513 114.871 84.7564 114.871 78.2257V63.8026C114.871 60.5692 112.054 57.5513 107.496 55.8872C102.794 54.1692 99.4795 50.8334 99.4795 45.9205Z" stroke="#2473FB" stroke-width="3" stroke-miterlimit="10"/>
<path d="M71.6562 73.7591C76.2454 75.9104 82.4225 77.2309 89.2152 77.2309C103.383 77.2309 114.867 71.4925 114.867 64.4104" stroke="#2473FB" stroke-width="3" stroke-miterlimit="10"/>
<path d="M66.1304 25.9487H24.2866L2 108H120L116.524 95.1975" stroke="#2473FB" stroke-width="3" stroke-miterlimit="10"/>
<path d="M32.7812 38.7688H68.6943" stroke="#2473FB" stroke-width="3" stroke-miterlimit="10"/>
<path d="M30.2168 49.0256H66.1298" stroke="#2473FB" stroke-width="3" stroke-miterlimit="10"/>
</svg>
