<svg width="123" height="123" viewBox="0 0 123 123" fill="none" xmlns="http://www.w3.org/2000/svg">
<path d="M59.6898 85.0588C64.1948 85.0588 66.6911 90.2941 71.1961 90.2941C75.7011 90.2941 79.2988 84.8285 83.8038 84.8285C88.3088 84.8285 100.602 92.5714 103.407 89.3831C106.426 86.4226 99.0913 76.6771 99.0939 72.5255C99.0939 68.3739 104.27 65.6516 104.27 61.5C104.27 57.3484 99.0939 54.6286 99.0939 50.4744C99.0913 46.3228 106.426 36.5774 103.407 33.6194C100.604 30.4285 88.3088 38.1741 83.8038 38.1741C79.2988 38.1741 75.7011 32.7085 71.1961 32.7085C66.6911 32.7085 64.1948 37.9438 59.6898 37.9438C55.1848 37.9438 52.6885 32.7085 48.1835 32.7085C43.6785 32.7085 40.0808 38.1768 35.5758 38.1741C31.0708 38.1741 18.7779 30.4311 15.9721 33.6194C12.9539 36.58 20.2856 46.3255 20.2856 50.4744C20.2856 54.626 15.1094 57.3484 15.1094 61.5C15.1094 65.6516 20.2856 68.3739 20.2856 72.5255C20.2856 76.6771 12.9539 86.4226 15.9721 89.3831C18.7753 92.5714 31.0708 84.8285 35.5758 84.8285C40.0808 84.8285 43.6785 90.2941 48.1835 90.2941C52.6885 90.2941 55.1848 85.0588 59.6898 85.0588Z" stroke="#2473FB" stroke-width="3" stroke-miterlimit="10"/>
<path d="M109.512 17H120.001V27.4706" stroke="#2473FB" stroke-width="3" stroke-miterlimit="10"/>
<path d="M12.4889 17H2V27.4706" stroke="#2473FB" stroke-width="3" stroke-miterlimit="10"/>
<path d="M17.7344 17H104.268" stroke="#2473FB" stroke-width="3" stroke-miterlimit="10"/>
<path d="M109.512 106H120.001V95.5295" stroke="#2473FB" stroke-width="3" stroke-miterlimit="10"/>
<path d="M12.4889 106H2V95.5295" stroke="#2473FB" stroke-width="3" stroke-miterlimit="10"/>
<path d="M17.7344 106H104.268" stroke="#2473FB" stroke-width="3" stroke-miterlimit="10"/>
<path d="M41.332 56.2646H78.0431" stroke="#2473FB" stroke-width="3" stroke-miterlimit="10"/>
<path d="M49.1992 66.7354H70.177" stroke="#2473FB" stroke-width="3" stroke-miterlimit="10"/>
<path d="M2 32.7061V90.2943" stroke="#2473FB" stroke-width="3" stroke-miterlimit="10"/>
<path d="M120 32.7061V90.2943" stroke="#2473FB" stroke-width="3" stroke-miterlimit="10"/>
</svg>
