<svg width="123" height="123" viewBox="0 0 123 123" fill="none" xmlns="http://www.w3.org/2000/svg">
<path d="M113.24 24.1086H61.5011C57.2145 24.1086 53.7402 27.5829 53.7402 31.8695V75.8477C53.7402 80.1343 57.2145 83.6085 61.5011 83.6085H90.7414L103.609 97.0581C105.223 98.7422 108.066 97.6039 108.066 95.2705V83.6085H113.24C117.527 83.6085 121.001 80.1343 121.001 75.8477V31.8695C121.001 27.5829 117.527 24.1086 113.24 24.1086Z" stroke="#2473FB" stroke-width="3" stroke-miterlimit="10"/>
<path d="M95.1304 31.8694V57.7389C95.1304 62.0255 91.6561 65.4998 87.3695 65.4998H61.5" stroke="#2473FB" stroke-width="3" stroke-miterlimit="10"/>
<path d="M14.9375 42.2173V13.7609C14.9375 9.47428 18.4118 6 22.6984 6H87.3722C91.6587 6 95.133 9.47428 95.133 13.7609V24.1087" stroke="#2473FB" stroke-width="3" stroke-miterlimit="10"/>
<path d="M53.7418 65.4997H46.087L32.283 79.2235C30.6507 80.8455 27.8723 79.6917 27.8723 77.3894V65.4997H22.6984C18.4118 65.4997 14.9375 62.0255 14.9375 57.7389V49.978" stroke="#2473FB" stroke-width="3" stroke-miterlimit="10"/>
<path d="M79.6086 83.6088V93.9566C79.6086 98.2431 76.1343 101.717 71.8477 101.717H42.6074L24.3176 116.437C22.6258 117.798 20.1087 116.595 20.1087 114.422V101.717H9.76086C5.47428 101.717 2 98.2431 2 93.9566V49.9784C2 45.6918 5.47428 42.2175 9.76086 42.2175H53.739" stroke="#2473FB" stroke-width="3" stroke-miterlimit="10"/>
<path d="M79.6074 65.5V75.8478" stroke="#2473FB" stroke-width="3" stroke-miterlimit="10"/>
<path d="M61.5 42.2175H71.8478C76.1344 42.2175 79.6087 45.6918 79.6087 49.9784V57.7392" stroke="#2473FB" stroke-width="3" stroke-miterlimit="10"/>
</svg>
