<svg width="123" height="123" viewBox="0 0 123 123" fill="none" xmlns="http://www.w3.org/2000/svg">
<path d="M109.74 69.2V110H2V36.05H35.348" stroke="#2473FB" stroke-width="3" stroke-miterlimit="10"/>
<path d="M40.4766 48.8V15.65C40.4766 11.4246 43.9217 8 48.1723 8H112.303C116.554 8 119.999 11.4246 119.999 15.65V56.45C119.999 60.6753 116.554 64.1 112.303 64.1H89.216L70.5077 82.6971C68.8916 84.3036 66.1289 83.1663 66.1289 80.8943V64.1H55.868" stroke="#2473FB" stroke-width="3" stroke-miterlimit="10"/>
<path d="M61.0007 102.35V95.6996C61.0007 88.5902 46.1968 84.5 40.4789 84.5C34.761 84.5 19.957 88.5902 19.957 95.6996V102.35" stroke="#2473FB" stroke-width="3" stroke-miterlimit="10"/>
<path d="M40.4797 53.8999C34.8387 53.8999 30.2188 58.4465 30.2188 64.054V66.7086C30.2188 72.316 34.8387 76.8627 40.4797 76.8627C46.1206 76.8627 50.7406 72.316 50.7406 66.7086V64.054C50.7406 58.4465 46.1206 53.8999 40.4797 53.8999Z" stroke="#2473FB" stroke-width="3" stroke-miterlimit="10"/>
<path d="M58.4336 36.05H102.043" stroke="#2473FB" stroke-width="3" stroke-miterlimit="10"/>
<path d="M58.4336 25.8501H102.043" stroke="#2473FB" stroke-width="3" stroke-miterlimit="10"/>
<path d="M58.4336 46.25H81.5207" stroke="#2473FB" stroke-width="3" stroke-miterlimit="10"/>
<path d="M35.348 20.75H2V36.05" stroke="#2473FB" stroke-width="3" stroke-miterlimit="10"/>
<path d="M9.69727 28.3999H14.8277" stroke="#2473FB" stroke-width="3" stroke-miterlimit="10"/>
<path d="M19.957 28.3999H25.0875" stroke="#2473FB" stroke-width="3" stroke-miterlimit="10"/>
</svg>
