<svg width="123" height="123" viewBox="0 0 123 123" fill="none" xmlns="http://www.w3.org/2000/svg">
<path d="M115.587 4H31.7488C28.763 4 26.3398 6.42321 26.3398 9.40894V77.0207C26.3398 80.0064 28.763 82.4297 31.7488 82.4297H83.9532L102.828 101.959C104.515 103.706 107.477 102.513 107.477 100.082V82.4297H115.59C118.576 82.4297 120.999 80.0064 120.999 77.0207V9.40894C120.996 6.42321 118.573 4 115.587 4Z" stroke="#2473FB" stroke-width="3" stroke-miterlimit="10" stroke-linejoin="round"/>
<path d="M75.0207 90.5432V93.2476C75.0207 96.2334 72.5975 98.6566 69.6118 98.6566H39.0432L20.1713 118.186C18.481 119.933 15.5224 118.74 15.5224 116.309V98.6566H7.40894C4.42321 98.6566 2 96.2334 2 93.2476V39.1582C2 36.1725 4.42321 33.7493 7.40894 33.7493H18.2268" stroke="#2473FB" stroke-width="3" stroke-miterlimit="10" stroke-linejoin="round"/>
<path d="M72.0998 54.398C76.7218 51.1337 80.4296 46.3765 80.4296 40.7242C80.4296 40.7242 80.4296 35.2692 80.4296 34.3335C80.4296 33.2463 83.1341 30.5012 83.1341 25.6359C83.1341 20.7084 81.9658 18.4799 79.4993 16.7625C76.6515 14.7801 72.3162 14.6422 72.3162 17.2899V19.421C72.3162 25.3384 68.3731 29.1301 64.8437 32.1077C64.8437 32.1077 59.3888 36.4511 57.3713 36.4511C55.3537 36.4511 45.2715 36.4538 45.2715 36.4538V63.4985H54.9535C59.7458 63.4985 58.7073 68.9074 65.4523 68.9074C66.7991 68.9074 91.0176 68.9074 91.0176 68.9074C93.3705 68.9074 96.0966 66.2246 96.0966 63.8717L99.4826 45.6301C100.243 41.0866 96.743 36.4538 92.1372 36.4538H85.8385" stroke="#2473FB" stroke-width="3" stroke-miterlimit="10"/>
</svg>
