<svg width="123" height="123" viewBox="0 0 123 123" fill="none" xmlns="http://www.w3.org/2000/svg">
<path d="M7.40909 96.8943H115.591C118.577 96.8943 121 94.4893 121 91.5259V16.3684C121 13.405 118.577 11 115.591 11H7.40909C4.42327 11 2 13.405 2 16.3684V91.5259C2 94.4893 4.42327 96.8943 7.40909 96.8943Z" stroke="#2473FB" stroke-width="3" stroke-miterlimit="10" stroke-linejoin="round"/>
<path d="M69.6133 112.999V96.8943" stroke="#2473FB" stroke-width="3" stroke-miterlimit="10" stroke-linejoin="round"/>
<path d="M53.3867 96.8943V112.999" stroke="#2473FB" stroke-width="3" stroke-miterlimit="10" stroke-linejoin="round"/>
<path d="M85.842 113H37.1602" stroke="#2473FB" stroke-width="3" stroke-miterlimit="10" stroke-linejoin="round"/>
<path d="M121 80.7896H2" stroke="#2473FB" stroke-width="3" stroke-miterlimit="10" stroke-linejoin="round"/>
<path d="M64.204 88.8418H58.7949" stroke="#2473FB" stroke-width="3" stroke-miterlimit="10" stroke-linejoin="round"/>
<path d="M43.0873 45.6499L39.3047 49.4394L60.7395 70.9131L91.0003 40.5973L73.3482 22.9131H65.7829L55.696 33.0183" stroke="#2473FB" stroke-width="3" stroke-miterlimit="10"/>
<path d="M51.9126 36.8076L46.8691 41.8602" stroke="#2473FB" stroke-width="3" stroke-miterlimit="10"/>
<path d="M65.7812 26.7024L69.5639 30.4919L73.3465 26.7024" stroke="#2473FB" stroke-width="3" stroke-miterlimit="10"/>
<path d="M61.9987 33.0183H45.6074" stroke="#2473FB" stroke-width="3" stroke-miterlimit="10"/>
<path d="M54.4362 24.176H38.0449" stroke="#2473FB" stroke-width="3" stroke-miterlimit="10"/>
<path d="M44.3476 59.5447H35.5215" stroke="#2473FB" stroke-width="3" stroke-miterlimit="10"/>
<path d="M51.913 41.8606H33" stroke="#2473FB" stroke-width="3" stroke-miterlimit="10"/>
</svg>
