<svg width="123" height="123" viewBox="0 0 123 123" fill="none" xmlns="http://www.w3.org/2000/svg">
<path d="M88.5 2H34.1739C31.3179 2 29 4.31791 29 7.17391V115.826C29 118.682 31.3179 121 34.1739 121H88.5C91.356 121 93.6739 118.682 93.6739 115.826V7.17391C93.6739 4.31791 91.356 2 88.5 2Z" stroke="#2473FB" stroke-width="3" stroke-miterlimit="10"/>
<path d="M29 105.478H93.6739" stroke="#2473FB" stroke-width="3" stroke-miterlimit="10" stroke-linejoin="round"/>
<path d="M57.4531 113.239H65.214" stroke="#2473FB" stroke-width="3" stroke-miterlimit="10" stroke-linejoin="round"/>
<path d="M67.8047 92.5436V69.261H80.7395V92.5436" stroke="#2473FB" stroke-width="3" stroke-miterlimit="10"/>
<path d="M41.9355 92.5434V79.6086H54.8703V92.5434" stroke="#2473FB" stroke-width="3" stroke-miterlimit="10"/>
<path d="M54.8691 92.5436V56.3262H67.8039V92.5436" stroke="#2473FB" stroke-width="3" stroke-miterlimit="10"/>
<path d="M65.2188 22.6958H83.3274" stroke="#2473FB" stroke-width="3" stroke-miterlimit="10"/>
<path d="M65.2188 33.0437H83.3274" stroke="#2473FB" stroke-width="3" stroke-miterlimit="10"/>
<path d="M65.2188 43.3914H75.5666" stroke="#2473FB" stroke-width="3" stroke-miterlimit="10"/>
<path d="M57.4573 22.6958H41.9355V43.3915H57.4573V22.6958Z" stroke="#2473FB" stroke-width="3" stroke-miterlimit="10"/>
</svg>
