<svg width="123" height="123" viewBox="0 0 123 123" fill="none" xmlns="http://www.w3.org/2000/svg">
<path d="M39.0898 63.311H115.134" stroke="#2473FB" stroke-width="3" stroke-miterlimit="10" stroke-linejoin="round"/>
<path d="M28.6016 102.645V115.756" stroke="#2473FB" stroke-width="3" stroke-miterlimit="10" stroke-linejoin="round"/>
<path d="M65.3104 121L49.5771 92.1552H31.2216C22.5342 92.1552 15.4883 85.1093 15.4883 76.4219V47.5775C15.4883 41.785 20.1847 37.0886 25.9772 37.0886H36.466L49.5771 52.8219H67.9327C67.9327 52.8219 69.4378 63.3108 57.4438 63.3108C50.4503 63.3108 41.7105 63.3108 41.7105 63.3108L31.2216 52.8219" stroke="#2473FB" stroke-width="3" stroke-miterlimit="10" stroke-linejoin="round"/>
<path d="M39.0898 58.0667V73.8H52.2009C57.7732 73.8 62.737 77.3216 64.5752 82.5792L77.2353 121" stroke="#2473FB" stroke-width="3" stroke-miterlimit="10" stroke-linejoin="round"/>
<path d="M5 42.3333V81.6665C5 93.2515 14.3928 102.644 25.9778 102.644H44.3333" stroke="#2473FB" stroke-width="3" stroke-miterlimit="10" stroke-linejoin="round"/>
<path d="M44.3358 121H39.0913H33.8469L28.6025 115.755L23.358 121H18.1136H12.8691" stroke="#2473FB" stroke-width="3" stroke-miterlimit="10" stroke-linejoin="round"/>
<path d="M29.9094 29.2222C36.499 29.2222 41.7093 24.1928 41.7093 17.986V14.2362C41.7093 8.03205 36.499 3 29.9094 3C23.3197 3 18.1094 8.03205 18.1094 14.2362V17.986C18.1094 24.1928 23.3197 29.2222 29.9094 29.2222Z" stroke="#2473FB" stroke-width="3" stroke-miterlimit="10" stroke-linejoin="round"/>
<path d="M62.168 44.9555L70.5591 23.9778H117.759L105.172 55.4444H75.8035" stroke="#2473FB" stroke-width="3" stroke-miterlimit="10" stroke-linejoin="round"/>
</svg>
