<svg width="123" height="123" viewBox="0 0 123 123" fill="none" xmlns="http://www.w3.org/2000/svg">
<path d="M20.9574 84.6956H13.2617" stroke="#2473FB" stroke-width="3" stroke-miterlimit="10"/>
<path d="M13.2609 64.174L3 61.6088V51.3479" stroke="#2473FB" stroke-width="3" stroke-miterlimit="10"/>
<path d="M49.1748 87.2609V74.4348H26.0879V87.2609" stroke="#2473FB" stroke-width="3" stroke-miterlimit="10"/>
<path d="M54.3047 84.6956H62.0003" stroke="#2473FB" stroke-width="3" stroke-miterlimit="10"/>
<path d="M62 64.174L72.2609 61.6088V51.3479" stroke="#2473FB" stroke-width="3" stroke-miterlimit="10"/>
<path d="M8.13086 94.9565V102.652C8.13086 104.071 9.28008 105.217 10.6961 105.217H18.3917C19.8077 105.217 20.9569 104.071 20.9569 102.652V94.9565" stroke="#2473FB" stroke-width="3" stroke-miterlimit="10"/>
<path d="M54.3047 94.9565V102.652C54.3047 104.071 55.4539 105.217 56.8699 105.217H64.5656C65.9816 105.217 67.1308 104.071 67.1308 102.652V94.9565" stroke="#2473FB" stroke-width="3" stroke-miterlimit="10"/>
<path d="M103.043 94.9565V102.652C103.043 104.071 104.192 105.217 105.608 105.217H113.304C114.72 105.217 115.869 104.071 115.869 102.652V94.9565" stroke="#2473FB" stroke-width="3" stroke-miterlimit="10"/>
<path d="M54.3049 51.3479H20.957V64.174H54.3049V51.3479Z" stroke="#2473FB" stroke-width="3" stroke-miterlimit="10"/>
<path d="M62 28.261V66.7392L64.5652 69.3045C65.8478 70.5871 67.133 72.1108 67.1304 74.4349C67.1304 76.2819 67.1381 81.9715 67.1304 84.6958H72.2609V94.9566H3V84.6958H8.13043C8.12274 81.9715 8.13043 76.2819 8.13043 74.4349C8.12787 72.1108 9.41304 70.5871 10.6957 69.3045L13.2609 66.7392V28.261" stroke="#2473FB" stroke-width="3" stroke-miterlimit="10"/>
<path d="M62.0009 43.6522L58.8482 40.7227C56.9628 38.5423 54.6207 38.5217 51.74 38.5217H23.5226C20.6418 38.5217 18.2998 38.5423 16.4144 40.7227L13.2617 43.6522" stroke="#2473FB" stroke-width="3" stroke-miterlimit="10"/>
<path d="M3 46.2174V18H72.2609V46.2174" stroke="#2473FB" stroke-width="3" stroke-miterlimit="10"/>
<path d="M72.2617 18H74.8269L121.001 48.7826V94.9565H77.3922" stroke="#2473FB" stroke-width="3" stroke-miterlimit="10"/>
</svg>
