<svg width="123" height="123" viewBox="0 0 123 123" fill="none" xmlns="http://www.w3.org/2000/svg">
<path d="M98.5 19H115.591C118.577 19 121 21.405 121 24.3684V99.5259C121 102.489 118.577 104.894 115.591 104.894H7.40909C4.42327 104.894 2 102.489 2 99.5259V24.3684C2 21.405 4.42327 19 7.40909 19H22.5" stroke="#2473FB" stroke-width="3" stroke-miterlimit="10" stroke-linejoin="round"/>
<path d="M69.6133 120.999V104.894" stroke="#2473FB" stroke-width="3" stroke-miterlimit="10" stroke-linejoin="round"/>
<path d="M53.3867 104.894V120.999" stroke="#2473FB" stroke-width="3" stroke-miterlimit="10" stroke-linejoin="round"/>
<path d="M85.842 121H37.1602" stroke="#2473FB" stroke-width="3" stroke-miterlimit="10" stroke-linejoin="round"/>
<path d="M121 88.7896H2" stroke="#2473FB" stroke-width="3" stroke-miterlimit="10" stroke-linejoin="round"/>
<path d="M64.204 96.8418H58.7949" stroke="#2473FB" stroke-width="3" stroke-miterlimit="10" stroke-linejoin="round"/>
<path d="M64.6239 9.69565L64.1021 6.96746C63.6765 5.77946 62.6454 5 61.4994 5H42.5234C41.3773 5 40.3463 5.77946 39.9206 6.96746L39.4004 9.69565" stroke="#2473FB" stroke-width="3" stroke-miterlimit="10"/>
<path d="M42.5523 28.4783V31.6087C42.5523 32.4743 41.846 33.174 40.9758 33.174H36.2464C35.3762 33.174 34.6699 32.4743 34.6699 31.6087V26.9131" stroke="#2473FB" stroke-width="3" stroke-miterlimit="10"/>
<path d="M42.5539 22.2175H36.248" stroke="#2473FB" stroke-width="3" stroke-miterlimit="10"/>
<path d="M36.2473 14.3914L33.0943 11.261H29.9414" stroke="#2473FB" stroke-width="3" stroke-miterlimit="10"/>
<path d="M67.7775 14.3911L64.6245 15.9563H39.401L36.248 14.3911" stroke="#2473FB" stroke-width="3" stroke-miterlimit="10"/>
<path d="M67.7761 14.3911C67.7761 14.3911 70.929 18.1492 70.929 19.1963V28.4781H33.0938V19.1963C33.0938 18.1492 36.2467 14.3911 36.2467 14.3911" stroke="#2473FB" stroke-width="3" stroke-miterlimit="10"/>
<path d="M61.4707 28.4783V31.6087C61.4707 32.4743 62.177 33.174 63.0472 33.174H67.7766C68.6468 33.174 69.3531 32.4743 69.3531 31.6087V26.9131" stroke="#2473FB" stroke-width="3" stroke-miterlimit="10"/>
<path d="M61.4707 22.2175H67.7766" stroke="#2473FB" stroke-width="3" stroke-miterlimit="10"/>
<path d="M67.7754 14.3914L70.9283 11.261H74.0813" stroke="#2473FB" stroke-width="3" stroke-miterlimit="10"/>
<path d="M56.7422 66.0435L63.0481 59.7826L56.7422 53.5217" stroke="#2473FB" stroke-width="3" stroke-miterlimit="10"/>
<path d="M63.0471 59.7826H36.2471C30.5875 59.7826 26 55.2278 26 49.6087C26 43.9896 30.5875 39.4348 36.2471 39.4348H81.9647C88.0341 39.4348 93 34.5043 93 28.4783C93 22.4522 88.0341 17.5217 81.9647 17.5217H75.6588" stroke="#2473FB" stroke-width="3" stroke-miterlimit="10"/>
<path d="M81.963 77.0002C85.1317 67.313 92.9983 66.1626 92.9983 57.2753C92.9983 51.0442 88.5416 45.6958 81.963 45.6958C75.3844 45.6958 70.9277 51.0442 70.9277 57.2753C70.9277 66.1626 78.7943 67.313 81.963 77.0002Z" stroke="#2473FB" stroke-width="3" stroke-miterlimit="10" stroke-linejoin="round"/>
</svg>
