<svg width="123" height="123" viewBox="0 0 123 123" fill="none" xmlns="http://www.w3.org/2000/svg">
<path d="M76.1094 56.9089H88.9355" stroke="#2473FB" stroke-width="3" stroke-miterlimit="10" stroke-linecap="round" stroke-linejoin="round"/>
<path d="M82.5211 56.909V36.5454H77.3906" stroke="#2473FB" stroke-width="3" stroke-miterlimit="10" stroke-linecap="round" stroke-linejoin="round"/>
<path d="M82.5215 25.0908V27.6363" stroke="#2473FB" stroke-width="3" stroke-miterlimit="10" stroke-linecap="round" stroke-linejoin="round"/>
<path d="M23.5217 99.2781V107.935C23.5217 110.224 21.8338 112.232 19.384 112.863L3 118" stroke="#2473FB" stroke-width="3" stroke-miterlimit="10" stroke-linecap="round" stroke-linejoin="round"/>
<path d="M44.043 104.677V107.935C44.043 110.224 45.7309 112.232 48.1807 112.863L64.5647 118" stroke="#2473FB" stroke-width="3" stroke-miterlimit="10" stroke-linecap="round" stroke-linejoin="round"/>
<path d="M30.2273 102.765C21.9468 100.627 15.7363 91.802 15.7363 83.066V70.9522C15.7363 66.9151 21.6568 62.3206 28.3264 59.5129" stroke="#2473FB" stroke-width="3" stroke-miterlimit="10" stroke-linecap="round" stroke-linejoin="round"/>
<path d="M25.9062 52.78C25.9062 62.8753 46.6076 72.1814 53.8594 71.9167" stroke="#2473FB" stroke-width="3" stroke-miterlimit="10" stroke-linecap="round" stroke-linejoin="round"/>
<path d="M51.7383 87.4543V72.1816" stroke="#2473FB" stroke-width="3" stroke-miterlimit="10" stroke-linecap="round" stroke-linejoin="round"/>
<path d="M38.913 100.182V105.272C51.2261 105.272 59.4348 95.5285 59.4348 87.4543L64.5652 84.9089V69.6362L59.4348 67.0908V64.5453C59.4348 50.0515 48.5172 36.6294 33.7826 36.6294C19.048 36.6294 8.13043 48.3792 8.13043 62.8755V67.0908L3 69.6362V84.9089L9.15651 87.5841" stroke="#2473FB" stroke-width="3" stroke-miterlimit="10" stroke-linecap="round" stroke-linejoin="round"/>
<path d="M72.8237 81.0983C74.314 81.4827 75.0477 81.6252 76.6022 81.8314C76.6022 81.8314 76.5355 91.219 74.9322 97.6361C86.6886 94.243 92.563 81.0474 92.563 81.0474L92.4373 81.0373C108.873 76.6896 120.998 61.8598 120.998 44.1817C120.998 23.0952 103.77 6 82.5202 6C66.2157 6 52.2788 16.0622 46.6738 30.2708" stroke="#2473FB" stroke-width="3" stroke-miterlimit="10" stroke-linecap="round" stroke-linejoin="round"/>
</svg>
