<svg width="123" height="123" viewBox="0 0 123 123" fill="none" xmlns="http://www.w3.org/2000/svg">
<path d="M60.9999 94.0293C54.5661 94.0293 49.7617 88.6702 49.7617 82.0565V78.0609C49.7617 71.4501 54.5661 66.0881 60.9999 66.0881C67.4338 66.0881 72.2381 71.4501 72.2381 78.0609V82.0565C72.2381 88.6702 67.4338 94.0293 60.9999 94.0293Z" stroke="#2473FB" stroke-width="3" stroke-miterlimit="10" stroke-linecap="round"/>
<path d="M41.3359 108V105.206C41.3359 97.5471 54.0042 94.0293 61.0028 94.0293C68.0014 94.0293 80.6697 97.48 80.6697 105.141V108" stroke="#2473FB" stroke-width="3" stroke-miterlimit="10" stroke-linecap="round"/>
<path d="M38.5253 40.9411C32.0914 40.9411 27.2871 35.582 27.2871 28.9684V24.9728C27.2871 18.3619 32.0914 13 38.5253 13C44.9592 13 49.7635 18.3619 49.7635 24.9728V28.9684C49.7635 35.582 44.9592 40.9411 38.5253 40.9411Z" stroke="#2473FB" stroke-width="3" stroke-miterlimit="10" stroke-linecap="round"/>
<path d="M18.8594 54.9117V52.1176C18.8594 44.459 31.5277 40.9412 38.5262 40.9412C45.5248 40.9412 58.1931 44.3919 58.1931 52.0534V54.9117" stroke="#2473FB" stroke-width="3" stroke-miterlimit="10" stroke-linecap="round"/>
<path d="M86.289 40.9411C79.8551 40.9411 75.0508 35.582 75.0508 28.9684V24.9728C75.0508 18.3619 79.8551 13 86.289 13C92.7229 13 97.5272 18.3619 97.5272 24.9728V28.9684C97.5272 35.582 92.7229 40.9411 86.289 40.9411Z" stroke="#2473FB" stroke-width="3" stroke-miterlimit="10" stroke-linecap="round"/>
<path d="M66.6211 54.9117V52.1176C66.6211 44.459 79.2894 40.9412 86.288 40.9412C93.2866 40.9412 105.955 44.3919 105.955 52.0534V54.9117" stroke="#2473FB" stroke-width="3" stroke-miterlimit="10" stroke-linecap="round"/>
<path d="M21.6659 94.0293C15.2321 94.0293 10.4277 88.6702 10.4277 82.0565V78.0609C10.4277 71.4501 15.2321 66.0881 21.6659 66.0881C28.0998 66.0881 32.9042 71.4501 32.9042 78.0609V82.0565C32.9042 88.6702 28.0998 94.0293 21.6659 94.0293Z" stroke="#2473FB" stroke-width="3" stroke-miterlimit="10" stroke-linecap="round"/>
<path d="M2 108V105.206C2 97.5471 14.6683 94.0293 21.6669 94.0293C28.6655 94.0293 41.3337 97.48 41.3337 105.141V108" stroke="#2473FB" stroke-width="3" stroke-miterlimit="10" stroke-linecap="round"/>
<path d="M100.336 94.0293C93.902 94.0293 89.0977 88.6702 89.0977 82.0565V78.0609C89.0977 71.4501 93.902 66.0881 100.336 66.0881C106.77 66.0881 111.574 71.4501 111.574 78.0609V82.0565C111.574 88.6702 106.77 94.0293 100.336 94.0293Z" stroke="#2473FB" stroke-width="3" stroke-miterlimit="10" stroke-linecap="round"/>
<path d="M80.666 108V105.206C80.666 97.5471 93.3343 94.0293 100.333 94.0293C107.331 94.0293 120 97.48 120 105.141V108" stroke="#2473FB" stroke-width="3" stroke-miterlimit="10" stroke-linecap="round"/>
</svg>
