<svg width="72" height="72" viewBox="0 0 72 72" fill="none" xmlns="http://www.w3.org/2000/svg">
<path d="M64.913 62.9998H7.08696C3.72543 62.9998 1 61.7901 1 58.4116V55.3528H26.8696L29.913 56.8822H42.087L45.1304 55.3528H71V58.4116C71 61.7901 68.2746 62.9998 64.913 62.9998Z" stroke="#2473FB" stroke-width="2" stroke-miterlimit="10" stroke-linejoin="round"/>
<path d="M5.56445 55.3529V14.0588C5.56445 12.3704 6.92793 11 8.60793 11H63.3905C65.0705 11 66.434 12.3704 66.434 14.0588V55.3529" stroke="#2473FB" stroke-width="2" stroke-miterlimit="10" stroke-linejoin="round"/>
<path d="M51.218 26.294L49.2154 21.7853C48.5945 19.9103 46.8491 18.647 44.8845 18.647H36.0006H27.1167C25.1521 18.647 23.4067 19.9103 22.7858 21.7853L20.7832 26.294" stroke="#2473FB" stroke-width="2" stroke-miterlimit="10"/>
<path d="M28.3906 38.5295H35.9993H43.608" stroke="#2473FB" stroke-width="2" stroke-miterlimit="10"/>
<path d="M58.8263 24.7646H54.261C53.7528 24.7646 49.6486 29.3529 46.6523 29.3529H25.348C22.3517 29.3529 18.2476 24.7646 17.7393 24.7646H13.1741C12.3326 24.7646 11.6523 25.4483 11.6523 26.2941V28.3496C11.6523 29.1953 12.3326 29.879 13.1741 29.879L16.2176 30.8823V32.4117C15.2421 33.3921 14.6958 34.7196 14.6958 36.1037V38.5294C14.6958 39.8829 15.2908 41.0865 16.2176 41.9277V46.1764C16.2176 47.0222 16.8978 47.7058 17.7393 47.7058H23.8263C24.6678 47.7058 25.348 47.0222 25.348 46.1764V43.1176H46.6523V46.1764C46.6523 47.0222 47.3326 47.7058 48.1741 47.7058H54.261C55.1026 47.7058 55.7828 47.0222 55.7828 46.1764V41.9277C56.7095 41.0865 57.3045 39.8829 57.3045 38.5294V36.1037C57.3045 34.7196 56.7582 33.3921 55.7828 32.4117V30.8823L58.8263 29.879C59.6678 29.879 60.348 29.1953 60.348 28.3496V26.2941C60.348 25.4483 59.6678 24.7646 58.8263 24.7646Z" stroke="#2473FB" stroke-width="2" stroke-miterlimit="10"/>
<path d="M52.1126 32.9927C50.2424 34.5863 47.6006 35.4703 45.1309 35.4703" stroke="#2473FB" stroke-width="2" stroke-miterlimit="10"/>
<path d="M19.8887 32.9927C21.7589 34.5863 24.4006 35.4703 26.8704 35.4703" stroke="#2473FB" stroke-width="2" stroke-miterlimit="10"/>
<path d="M25.3487 43.1177H19.2617" stroke="#2473FB" stroke-width="2" stroke-miterlimit="10"/>
<path d="M52.7393 43.1177H46.6523" stroke="#2473FB" stroke-width="2" stroke-miterlimit="10"/>
</svg>
