<svg width="72" height="72" viewBox="0 0 72 72" fill="none" xmlns="http://www.w3.org/2000/svg">
<path d="M70.9991 48.923C67.04 46.141 62.8906 44.0227 58.0794 44.0227C44.0666 44.0227 35.2056 62 21.2464 62C14.3843 62 8.43529 60.5019 2.48633 57.5057" stroke="#2473FB" stroke-width="2" stroke-miterlimit="10"/>
<path d="M33.7184 51.6482C27.3991 44.2955 21.5438 35.0342 13.8265 35.0342C9.50908 35.0342 6.0453 37.1855 2.48633 41.0266" stroke="#2473FB" stroke-width="2" stroke-miterlimit="10"/>
<path d="M45.6378 44.0017C42.4209 40.4902 39.024 38.0303 35.1899 38.0303C33.0096 38.0303 31.0375 38.6205 29.1621 39.7381" stroke="#2473FB" stroke-width="2" stroke-miterlimit="10"/>
<path d="M60.4896 27.5435C60.4896 31.6453 57.1597 35.034 53.0534 35.034C48.9471 35.034 45.6172 31.6453 45.6172 27.5435C45.6172 23.4416 53.0534 9.56616 53.0534 9.56616C53.0534 9.56616 60.4896 23.4416 60.4896 27.5435Z" stroke="#2473FB" stroke-width="2" stroke-miterlimit="10"/>
<path d="M53.0527 35.0342V45.5209" stroke="#2473FB" stroke-width="2" stroke-miterlimit="10"/>
<path d="M62.6846 21.6618C63.9011 19.0731 64.9511 17.0566 64.9511 17.0566C64.9511 17.0566 70.9001 28.4827 70.9001 31.861C70.9001 35.2392 68.2364 38.0302 64.9511 38.0302C63.3538 38.0302 61.9053 37.371 60.8359 36.3058" stroke="#2473FB" stroke-width="2" stroke-miterlimit="10"/>
<path d="M64.9512 38.0303V45.5208" stroke="#2473FB" stroke-width="2" stroke-miterlimit="10"/>
<path d="M36.6938 23.0494H23.3086C22.7345 20.0293 20.3341 18.9761 17.6259 19.6188C16.5104 17.6832 14.4551 16.4907 12.0725 16.4907C8.53289 16.4907 5.49147 18.5551 5.46172 23.0494H1" stroke="#2473FB" stroke-width="2" stroke-miterlimit="10"/>
<path d="M42.6422 15.5587H38.2191C37.358 12.4921 34.9605 11.6457 32.4962 12.128C31.3808 10.1925 29.3254 9 26.9428 9C23.4032 9 20.3618 11.0644 20.332 15.5587" stroke="#2473FB" stroke-width="2" stroke-miterlimit="10"/>
</svg>
