<svg width="72" height="72" viewBox="0 0 72 72" fill="none" xmlns="http://www.w3.org/2000/svg">
<path d="M71 7H1V66H71V7Z" stroke="#2473FB" stroke-width="2" stroke-miterlimit="10" stroke-linejoin="round"/>
<path d="M1 16.077H71" stroke="#2473FB" stroke-width="2" stroke-miterlimit="10" stroke-linejoin="round"/>
<path d="M8.60938 19.1027V23.4641L13.5383 23.8817C13.7468 25.1116 14.0694 26.2992 14.4955 27.4398L10.4385 30.2521L13.304 35.184L17.7672 33.1068C18.5585 34.0569 19.4381 34.9298 20.3937 35.718L18.3028 40.1551L23.2652 43.0037L26.0942 38.9705C27.24 39.3941 28.4361 39.7148 29.6733 39.9221L30.0948 44.8221H35.8242L36.2457 39.9221C37.4828 39.7148 38.6774 39.3941 39.8248 38.9705L42.6537 43.0037L47.6161 40.1551L45.5252 35.718C46.4809 34.9298 47.3605 34.0569 48.1518 33.1068L52.615 35.184L55.4789 30.2521L51.422 27.4398C51.8481 26.2992 52.1707 25.1116 52.3792 23.8817L57.3081 23.4641V19.1027" stroke="#2473FB" stroke-width="2" stroke-miterlimit="10"/>
<path d="M64.9133 62.9743V58.8897L59.9007 58.4358C59.6907 57.7324 59.4122 57.0576 59.0668 56.4238L62.1772 52.4768L58.7335 49.0533L54.7633 52.1455C54.1257 51.8006 53.447 51.5253 52.7394 51.3165L52.1307 46.3333H47.2611L46.6524 51.3165C45.9448 51.5253 45.2661 51.8006 44.6285 52.1455L40.6583 49.0533L37.2146 52.4768L40.325 56.4238C39.9796 57.0576 39.7011 57.7324 39.4911 58.4358L34.4785 58.8897V62.9743" stroke="#2473FB" stroke-width="2" stroke-miterlimit="10"/>
<path d="M54.2613 62.9744V61.4601C54.2613 58.9533 52.2176 56.9216 49.6961 56.9216C47.1746 56.9216 45.1309 58.9533 45.1309 61.4601V62.9744" stroke="#2473FB" stroke-width="2" stroke-miterlimit="10" stroke-linejoin="round"/>
<path d="M39.0431 19.1027C39.0431 22.4445 36.3176 25.1539 32.9561 25.1539C29.5946 25.1539 26.8691 22.4445 26.8691 19.1027" stroke="#2473FB" stroke-width="2" stroke-miterlimit="10" stroke-linejoin="round"/>
<path d="M5.56445 11.5385H8.60793" stroke="#2473FB" stroke-width="2" stroke-miterlimit="10" stroke-linejoin="round"/>
<path d="M11.6523 11.5385H14.6958" stroke="#2473FB" stroke-width="2" stroke-miterlimit="10" stroke-linejoin="round"/>
</svg>
