<svg width="72" height="72" viewBox="0 0 72 72" fill="none" xmlns="http://www.w3.org/2000/svg">
<path d="M58.2805 20.2103L58.0248 19.941C56.7146 18.5608 56.3433 16.7681 57.1985 15.9555L60.84 12.524C62.1579 11.2732 64.3066 11.3797 65.6168 12.7599L65.8724 13.0277C67.1826 14.4079 67.1766 16.5597 65.8603 17.8105L62.2187 21.2421C61.362 22.0547 59.5907 21.5905 58.2805 20.2103Z" stroke="#2473FB" stroke-width="2" stroke-miterlimit="10"/>
<path d="M30.8691 71.0001C30.8691 71.0001 33.8304 67.949 35.4344 66.4349C47.8396 67.3434 52.4565 58.7516 53.6952 57.3044" stroke="#2473FB" stroke-width="2" stroke-miterlimit="10"/>
<path d="M59.2253 48.6928L58.9697 48.4706C57.6549 47.3369 57.1664 45.73 57.8831 44.9006L60.9358 41.3885C62.039 40.1102 64.0158 39.9915 65.3305 41.1252L65.5862 41.3459C66.901 42.4795 67.0745 44.4532 65.9697 45.7315L62.9171 49.2437C62.2003 50.0746 60.5401 49.8265 59.2253 48.6928Z" stroke="#2473FB" stroke-width="2" stroke-miterlimit="10"/>
<path d="M32.3915 60.3476C35.6952 50.9098 32.463 42.4352 29.4743 38.6613C30.7267 34.8904 31.2426 32.2 31.6595 27.7656C31.8999 25.2167 30.8195 23.03 29.6919 21.4519C28.5399 19.8374 25.7263 20.2087 25.1602 22.0165C22.6721 29.9798 22.2065 32.1467 20.6665 36.1459C18.9454 40.6182 19.9315 46.8939 19.0763 48.7306C18.9043 49.0928 15.6523 54.2606 15.6523 54.2606" stroke="#2473FB" stroke-width="2" stroke-miterlimit="10"/>
<path d="M59.2497 39.1258L58.9895 38.9021C57.6519 37.7486 57.1543 36.1127 57.8817 35.2681L60.9875 31.6951C62.1091 30.3955 64.1223 30.2738 65.4584 31.4288L65.7186 31.6525C67.0562 32.806 67.2328 34.8147 66.1097 36.1157L63.0038 39.6888C62.278 40.5318 60.5873 40.2792 59.2497 39.1258Z" stroke="#2473FB" stroke-width="2" stroke-miterlimit="10"/>
<path d="M59.2489 29.7988L58.9887 29.5751C57.6526 28.4217 57.1535 26.7858 57.8824 25.9412L60.9883 22.3682C62.1098 21.0686 64.123 20.9469 65.4591 22.1004L65.7193 22.3256C67.057 23.4791 67.2319 25.4878 66.1104 26.7873L63.0046 30.3604C62.2756 31.2065 60.5865 30.9538 59.2489 29.7988Z" stroke="#2473FB" stroke-width="2" stroke-miterlimit="10"/>
<path d="M41.5215 52.739H46.0867" stroke="#2473FB" stroke-width="2" stroke-miterlimit="10"/>
<path d="M41.5215 5.56519H46.0867" stroke="#2473FB" stroke-width="2" stroke-miterlimit="10"/>
<path d="M59.7827 13.1739V5.56522C59.7827 3.0437 57.739 1 55.2175 1H32.3914C29.8699 1 27.8262 3.04217 27.8262 5.5637C27.8262 10.0498 27.8262 20.7826 27.8262 20.7826" stroke="#2473FB" stroke-width="2" stroke-miterlimit="10"/>
<path d="M32.3906 57.3043H55.2167C57.7382 57.3043 59.7819 55.2606 59.7819 52.739V49.6956" stroke="#2473FB" stroke-width="2" stroke-miterlimit="10"/>
<path d="M32.3913 70.9999L12.6087 51.2173L5 58.826L17.1739 70.9999" stroke="#2473FB" stroke-width="2" stroke-miterlimit="10"/>
<path d="M12.6094 58.8262L15.6529 61.8697" stroke="#2473FB" stroke-width="2" stroke-miterlimit="10"/>
<path d="M33.9121 48.1738H58.2599" stroke="#2473FB" stroke-width="2" stroke-miterlimit="10"/>
</svg>
