<svg width="72" height="72" viewBox="0 0 72 72" fill="none" xmlns="http://www.w3.org/2000/svg">
<path d="M27.8286 45.234C17.6559 43.1638 10 34.1487 10 23.3404C10 11.0026 19.9781 1 32.2857 1C44.5934 1 54.5714 11.0026 54.5714 23.3404C54.5714 25.7383 54.1941 28.0498 53.4958 30.2153" stroke="#2473FB" stroke-width="2" stroke-miterlimit="10" stroke-linejoin="round"/>
<path d="M36.7444 29.2979H32.2872V20.3617H27.8301" stroke="#2473FB" stroke-width="2" stroke-miterlimit="10"/>
<path d="M27.8301 29.2979H32.2872" stroke="#2473FB" stroke-width="2" stroke-miterlimit="10" stroke-linejoin="round"/>
<path d="M32.2852 17.383V14.4043" stroke="#2473FB" stroke-width="2" stroke-miterlimit="10" stroke-linejoin="round"/>
<path d="M41.1994 66.5319C41.1994 66.5319 41.1994 63.6157 41.1994 62.0638C37.5476 59.2087 36.4333 55.4853 35.2566 53.1276C34.0799 50.77 32.2852 47.1702 32.2852 47.1702C32.2852 45.73 35.3353 44.1661 36.8686 45.6808C38.4033 47.1955 39.7776 48.6595 39.7776 48.6595H41.1994V30.7872C41.1994 29.1429 42.602 27.8085 44.2437 27.8085H44.208C45.8482 27.8085 47.1438 29.1429 47.1438 30.7872V42.7021L57.471 44.8453C59.9774 45.3487 61.9994 47.1702 61.9994 50.1489V57.5957C61.9994 59.2712 60.5137 60.5149 60.5137 62.0638V66.5319H41.1994Z" stroke="#2473FB" stroke-width="2" stroke-miterlimit="10"/>
<path d="M38.2305 70.9999V66.5319H62.0019V70.9999" stroke="#2473FB" stroke-width="2" stroke-miterlimit="10"/>
<path d="M36.7434 39.1068C35.3275 39.5089 33.8314 39.7234 32.2862 39.7234C23.2605 39.7234 15.9434 32.3882 15.9434 23.3404C15.9434 14.2925 23.2605 6.9574 32.2862 6.9574C41.3119 6.9574 48.6291 14.2925 48.6291 23.3404" stroke="#2473FB" stroke-width="2" stroke-miterlimit="10"/>
</svg>
