<svg width="72" height="72" viewBox="0 0 72 72" fill="none" xmlns="http://www.w3.org/2000/svg">
<path d="M48.1738 25.3479H60.3477V20.7827L70.9999 32.9566L60.3477 45.1305V40.5653H51.2173" stroke="#2473FB" stroke-width="2" stroke-miterlimit="10" stroke-linejoin="round"/>
<path d="M16.2174 48.174H11.6522V52.7392L1 40.5653L11.6522 28.3914V32.9566H16.2174" stroke="#2473FB" stroke-width="2" stroke-miterlimit="10" stroke-linejoin="round"/>
<path d="M45.1304 25.3479H36" stroke="#2473FB" stroke-width="2" stroke-miterlimit="10"/>
<path d="M34.4783 48.1738H23.8262" stroke="#2473FB" stroke-width="2" stroke-miterlimit="10"/>
<path d="M42.087 32.9565H23.8262" stroke="#2473FB" stroke-width="2" stroke-miterlimit="10"/>
<path d="M48.1747 40.5652H31.4355" stroke="#2473FB" stroke-width="2" stroke-miterlimit="10"/>
<path d="M60.3487 16.2174V5.56522C60.3487 3.0437 58.305 1 55.7835 1H23.8269C21.3054 1 19.2617 3.0437 19.2617 5.56522V66.4348C19.2617 68.9563 21.3054 71 23.8269 71H55.7835C58.305 71 60.3487 68.9563 60.3487 66.4348V49.6957" stroke="#2473FB" stroke-width="2" stroke-miterlimit="10"/>
<path d="M19.2617 8.60864H60.3487" stroke="#2473FB" stroke-width="2" stroke-miterlimit="10"/>
<path d="M19.2617 61.8696H60.3487" stroke="#2473FB" stroke-width="2" stroke-miterlimit="10"/>
<path d="M37.5215 66.4348H42.0867" stroke="#2473FB" stroke-width="2" stroke-miterlimit="10"/>
</svg>
