<svg width="72" height="72" viewBox="0 0 72 72" fill="none" xmlns="http://www.w3.org/2000/svg">
<path d="M35.9899 15.6492C35.993 15.6492 35.996 15.6492 35.9991 15.6492C36.0021 15.6492 36.0052 15.6492 36.0082 15.6492C39.3606 15.6492 42.0799 18.1759 42.086 21.6814C42.0921 25.1868 39.3773 27.7317 36.0265 27.7317C36.0173 27.7317 36.0082 27.7317 35.9991 27.7317C35.9899 27.7317 35.9808 27.7317 35.9717 27.7317C32.6208 27.7317 29.9075 25.1868 29.9121 21.6814C29.9167 18.1759 32.6376 15.6492 35.9899 15.6492Z" stroke="#2473FB" stroke-width="2" stroke-miterlimit="10"/>
<path d="M36.0007 5C45.1844 5 52.6303 12.39 52.6303 21.5047C52.6363 25.4482 52.0459 28.1803 49.7876 31.7643C47.5309 35.3483 36.0007 51.9739 36.0007 51.9739C36.0007 51.9739 24.4705 35.3483 22.2137 31.7643C19.957 28.1803 19.3666 25.4482 19.3711 21.5047C19.3711 12.39 26.817 5 36.0007 5Z" stroke="#2473FB" stroke-width="2" stroke-miterlimit="10"/>
<path d="M55.7826 30.7524H66.4348C68.9563 30.7524 71 32.7808 71 35.2834V62.4691C71 64.9717 68.9563 67 66.4348 67H5.56522C3.0437 67 1 64.9717 1 62.4691V35.2834C1 32.7808 3.0437 30.7524 5.56522 30.7524H16.2174" stroke="#2473FB" stroke-width="2" stroke-miterlimit="10"/>
<path d="M61.8691 67V30.7524" stroke="#2473FB" stroke-width="2" stroke-miterlimit="10"/>
<path d="M10.1309 67V30.7524" stroke="#2473FB" stroke-width="2" stroke-miterlimit="10"/>
<path d="M66.4355 51.8967V45.8555" stroke="#2473FB" stroke-width="2" stroke-miterlimit="10"/>
</svg>
