<svg width="72" height="72" viewBox="0 0 72 72" fill="none" xmlns="http://www.w3.org/2000/svg">
<path d="M30.9638 61.6109C26.7976 64.5843 23.0471 66.6889 22.5568 66.8152C21.3965 66.5139 2 55.1496 2 47.413C2 39.392 2 35.0489 2 25.7283C7.80007 25.7283 20.527 20.5376 22.5568 17.7391C24.5866 20.5376 37.3136 25.7283 43.1136 25.7283V37.6176" stroke="#2473FB" stroke-width="2" stroke-miterlimit="10" stroke-linecap="round" stroke-linejoin="round"/>
<path d="M14.0859 29.5767C17.8318 28.3715 21.6645 26.5408 22.5569 25.3478C23.9852 27.2576 32.9419 30.7986 37.0228 30.7986C37.0228 35.6697 37.0228 38.5474 37.0228 42.0884" stroke="#2473FB" stroke-width="2" stroke-miterlimit="10" stroke-linecap="round" stroke-linejoin="round"/>
<path d="M29.4035 54.6171C26.1205 56.9864 22.9364 58.7303 22.5558 58.8262C21.7396 58.6208 8.08984 50.869 8.08984 45.5901C8.08984 41.3368 8.08984 38.5992 8.08984 34.6031" stroke="#2473FB" stroke-width="2" stroke-miterlimit="10" stroke-linecap="round" stroke-linejoin="round"/>
<path d="M52.2507 22.3043V16.2174H58.3416L47.6825 1L37.0234 16.2174H43.1143V19.2609" stroke="#2473FB" stroke-width="2" stroke-miterlimit="10" stroke-linecap="round" stroke-linejoin="round"/>
<path d="M62.9089 55.7826V39.0434H68.9998L58.3407 23.826L47.6816 39.0434H53.7725V46.6521" stroke="#2473FB" stroke-width="2" stroke-miterlimit="10" stroke-linecap="round" stroke-linejoin="round"/>
<path d="M38.5467 70.9999V57.3043H33.9785L43.1149 43.6086L52.2512 57.3043H47.6831V63.3913" stroke="#2473FB" stroke-width="2" stroke-miterlimit="10" stroke-linecap="round" stroke-linejoin="round"/>
</svg>
