<svg width="72" height="72" viewBox="0 0 72 72" fill="none" xmlns="http://www.w3.org/2000/svg">
<path d="M35.7754 21.222L41.9976 27.4442L52.8863 16.5554" stroke="#2473FB" stroke-width="2" stroke-miterlimit="10"/>
<path d="M20.2188 25.8887H24.8854" stroke="#2473FB" stroke-width="2" stroke-miterlimit="10"/>
<path d="M59.1074 25.8887H63.774" stroke="#2473FB" stroke-width="2" stroke-miterlimit="10"/>
<path d="M41.9961 4.11108V8.77771" stroke="#2473FB" stroke-width="2" stroke-miterlimit="10"/>
<path d="M23.7734 63.2215C24.3692 62.6257 24.979 61.666 26.8845 61.666C28.7885 61.666 47.8719 61.666 49.7759 61.666C51.5041 61.666 61.0115 52.132 62.2202 50.7772C63.3822 49.4736 68.5621 41.6913 69.9979 38.3328C69.0957 37.118 66.6582 36.1069 63.7757 36.7773C61.0255 37.4151 59.4078 39.3922 57.5536 42.9995L50.423 46.7017" stroke="#2473FB" stroke-width="2" stroke-miterlimit="10" stroke-linejoin="round"/>
<path d="M32.6641 52.3329C32.6641 52.3329 45.1084 52.3329 46.664 52.3329C52.8862 52.3329 52.8862 44.5552 46.664 44.5552C45.1084 44.5552 41.6567 44.5552 37.3307 44.5552C36.035 44.5552 33.6037 41.4441 31.5503 41.4441C30.6372 41.4441 25.8742 41.4441 23.7726 41.4441C21.6695 41.4441 19.0593 43.1505 17.5505 44.5552C15.2187 46.8869 11.1074 50.7773 11.1074 50.7773" stroke="#2473FB" stroke-width="2" stroke-miterlimit="10" stroke-linejoin="round"/>
<path d="M19.1098 70.9999L25.332 64.7776L8.22163 47.6672L1.99936 53.8894L19.1098 70.9999Z" stroke="#2473FB" stroke-width="2" stroke-miterlimit="10" stroke-linejoin="round"/>
<path d="M19.8094 37.1788C18.0812 33.7892 17.1074 29.9517 17.1074 25.8887C17.1074 12.1423 28.2513 1 41.9961 1C55.7408 1 66.8847 12.1423 66.8847 25.8887C66.8847 28.1349 66.5876 30.3142 66.0292 32.3846" stroke="#2473FB" stroke-width="2" stroke-miterlimit="10" stroke-linejoin="round"/>
</svg>
