<svg width="72" height="72" viewBox="0 0 72 72" fill="none" xmlns="http://www.w3.org/2000/svg">
<path d="M23.2608 52.7391C19.6649 52.7391 17.1738 49.8189 17.1738 46.217V44.0424C17.1738 40.4404 19.6649 37.5217 23.2608 37.5217C26.8567 37.5217 29.3477 40.4404 29.3477 44.0424V46.217C29.3477 49.8189 26.8567 52.7391 23.2608 52.7391Z" stroke="#266BDF" stroke-width="2" stroke-miterlimit="10"/>
<path d="M9.56445 71L12.6079 58.8261C13.5271 55.0217 15.3471 52.7391 18.6949 52.7391H21.7384L32.3617 64.913H41.4921C41.4921 64.913 42.1723 71 36.9269 71C33.8682 71 27.8253 71 27.8253 71L20.2166 63.3913" stroke="#266BDF" stroke-width="2" stroke-miterlimit="10" stroke-linecap="round"/>
<path d="M34.4512 60.4681L40.0009 51.2174H67.3922L58.2618 66.4348H44.5661" stroke="#266BDF" stroke-width="2" stroke-miterlimit="10" stroke-linejoin="round"/>
<path d="M21.7383 71H67.3905" stroke="#266BDF" stroke-width="2" stroke-miterlimit="10" stroke-linecap="round" stroke-linejoin="round"/>
<path d="M32.3928 36H36.958V44.123C36.958 45.5276 38.7004 46.1835 39.6241 45.1259L47.6102 36H62.8276C64.5076 36 65.8711 34.6365 65.8711 32.9565V4.04044C65.8711 2.36196 64.5091 1 62.8306 1H8.04041C6.36193 1 5 2.36196 5 4.04044V32.9565C5 34.6365 6.36348 36 8.04348 36H14.1304" stroke="#266BDF" stroke-width="2" stroke-miterlimit="10" stroke-linecap="round" stroke-linejoin="round"/>
</svg>
