<svg width="72" height="72" viewBox="0 0 72 72" fill="none" xmlns="http://www.w3.org/2000/svg">
<path d="M14.7061 48.1739C11.1079 48.1739 8.61523 45.2537 8.61523 41.6518V39.4772C8.61523 35.8752 11.1079 32.9565 14.7061 32.9565C18.3043 32.9565 20.7971 35.8752 20.7971 39.4772V41.6518C20.7971 45.2537 18.3043 48.1739 14.7061 48.1739Z" stroke="#2473FB" stroke-width="2" stroke-miterlimit="10"/>
<path d="M1 70.9999C1 70.9999 1.99891 62.5344 2.52273 58.826C3.04655 55.1175 5.26364 52.739 8.61364 52.739H11.6591L22.2892 64.9129H31.4256C31.4256 64.9129 32.1063 70.9999 26.8574 70.9999C23.7952 70.9999 17.75 70.9999 17.75 70.9999L10.1364 61.8694" stroke="#2473FB" stroke-width="2" stroke-miterlimit="10"/>
<path d="M23.8418 60.3477L29.9327 51.2173H57.3418L48.2054 66.4347H34.5009" stroke="#2473FB" stroke-width="2" stroke-miterlimit="10" stroke-linejoin="round"/>
<path d="M11.6602 71H60.3874" stroke="#2473FB" stroke-width="2" stroke-miterlimit="10" stroke-linejoin="round"/>
<path d="M29.9315 1H63.4315C65.9546 1 67.9996 3.0437 67.9996 5.56522V29.913C67.9996 33.2746 65.2724 36 61.9087 36H42.1133L35.7178 44.5217C34.8407 45.692 32.9769 45.0711 32.9769 43.6087V36H29.9315C27.4083 36 25.3633 33.9563 25.3633 31.4348V5.56522C25.3633 3.0437 27.4083 1 29.9315 1Z" stroke="#2473FB" stroke-width="2" stroke-miterlimit="10" stroke-linejoin="round"/>
<path d="M46.6813 29.913C51.7272 29.913 55.8176 25.8251 55.8176 20.7825C55.8176 15.7399 51.7272 11.6521 46.6813 11.6521C41.6354 11.6521 37.5449 15.7399 37.5449 20.7825C37.5449 25.8251 41.6354 29.913 46.6813 29.913Z" stroke="#2473FB" stroke-width="2" stroke-miterlimit="10"/>
<path d="M46.6816 11.6521V7.08691" stroke="#2473FB" stroke-width="2" stroke-miterlimit="10"/>
<path d="M43.6367 7.08691H49.7276" stroke="#2473FB" stroke-width="2" stroke-miterlimit="10"/>
<path d="M40.5904 13.1738L37.5449 10.1304" stroke="#2473FB" stroke-width="2" stroke-miterlimit="10"/>
<path d="M52.7715 13.1738L55.8169 10.1304" stroke="#2473FB" stroke-width="2" stroke-miterlimit="10"/>
<path d="M46.6816 14.6956V22.3043" stroke="#2473FB" stroke-width="2" stroke-miterlimit="10"/>
</svg>
