<svg width="72" height="72" viewBox="0 0 72 72" fill="none" xmlns="http://www.w3.org/2000/svg">
<g clip-path="url(#clip0)">
<path d="M31.4343 69.4352V61.2726C31.4343 57.6173 26.7625 55.7395 23.8255 55.7395C20.8886 55.7395 16.2168 57.6173 16.2168 61.2726V69.4352" stroke="#266BDF" stroke-width="2" stroke-miterlimit="10" stroke-linecap="round" stroke-linejoin="round"/>
<path d="M23.827 55.7394C26.487 55.7394 28.3922 54 28.3922 51.4785V49.3481C28.3922 46.8265 26.487 45.0872 23.827 45.0872C21.1669 45.0872 19.2617 46.8265 19.2617 49.3481V51.4785C19.2617 54 21.1669 55.7394 23.827 55.7394Z" stroke="#266BDF" stroke-width="2" stroke-miterlimit="10" stroke-linejoin="round"/>
<path d="M51.2175 69.4352V65.8377C51.2175 62.1825 46.5457 60.3047 43.6087 60.3047C40.6718 60.3047 36 62.1825 36 65.8377V69.4352" stroke="#266BDF" stroke-width="2" stroke-miterlimit="10" stroke-linecap="round" stroke-linejoin="round"/>
<path d="M43.6102 60.3048C46.2702 60.3048 48.1754 58.5655 48.1754 56.044V53.9135C48.1754 51.392 46.2702 49.6526 43.6102 49.6526C40.9502 49.6526 39.0449 51.392 39.0449 53.9135V56.044C39.0449 58.5655 40.9502 60.3048 43.6102 60.3048Z" stroke="#266BDF" stroke-width="2" stroke-miterlimit="10" stroke-linejoin="round"/>
<path d="M71.0007 69.4351V68.8812C71.0007 65.226 66.3289 63.3481 63.392 63.3481C60.455 63.3481 55.7832 65.226 55.7832 68.8812V69.4351" stroke="#266BDF" stroke-width="2" stroke-miterlimit="10" stroke-linecap="round" stroke-linejoin="round"/>
<path d="M63.3914 63.3483C66.0514 63.3483 67.9567 61.609 67.9567 59.0874V56.9569C67.9567 54.4354 66.0514 52.696 63.3914 52.696C60.7314 52.696 58.8262 54.4354 58.8262 56.9569V59.0874C58.8262 61.609 60.7314 63.3483 63.3914 63.3483Z" stroke="#266BDF" stroke-width="2" stroke-miterlimit="10" stroke-linejoin="round"/>
<path d="M16.2175 46.609H13.174V52.5119C13.174 53.9925 11.2749 54.6012 10.4151 53.3975L5.56525 46.609H4.0435C2.36349 46.609 1 45.2455 1 43.5655V23.7797C1 22.1012 2.36194 20.7393 4.04043 20.7393H34.483C36.1615 20.7393 37.5235 22.1012 37.5235 23.7797V43.5655C37.5235 45.2455 36.16 46.609 34.48 46.609H32.9582" stroke="#266BDF" stroke-width="2" stroke-miterlimit="10"/>
<path d="M40.5665 31.3915H45.1318V37.2944C45.1318 38.775 47.0309 39.3837 47.8907 38.18L52.7405 31.3915H57.3058C58.9858 31.3915 60.3493 30.028 60.3493 28.348V7.04046C60.3493 5.36197 58.9873 4 57.3088 4H17.7357C16.0573 4 14.6953 5.36197 14.6953 7.04046V17.6957" stroke="#266BDF" stroke-width="2" stroke-miterlimit="10"/>
<path d="M51.2188 40.5221H55.784V46.425C55.784 47.9056 57.6831 48.5143 58.5429 47.3106L63.3927 40.5221H67.958C69.638 40.5221 71.0015 39.1586 71.0015 37.4786V17.6928C71.0015 16.0143 69.6396 14.6523 67.9611 14.6523H63.3927" stroke="#266BDF" stroke-width="2" stroke-miterlimit="10"/>
</g>
<defs>
<clipPath id="clip0">
<rect width="72" height="72" fill="white"/>
</clipPath>
</defs>
</svg>
