<svg width="609" height="689" viewBox="0 0 609 689" fill="none" xmlns="http://www.w3.org/2000/svg">
<g opacity="0.2">
<rect x="4" width="1" height="9" fill="#1E468A"/>
<rect x="9" y="4" width="1" height="9" transform="rotate(90 9 4)" fill="#1E468A"/>
<rect x="44" width="1" height="9" fill="#1E468A"/>
<rect x="49" y="4" width="1" height="9" transform="rotate(90 49 4)" fill="#1E468A"/>
<rect x="84" width="1" height="9" fill="#1E468A"/>
<rect x="89" y="4" width="1" height="9" transform="rotate(90 89 4)" fill="#1E468A"/>
<rect x="124" width="1" height="9" fill="#1E468A"/>
<rect x="129" y="4" width="1" height="9" transform="rotate(90 129 4)" fill="#1E468A"/>
<rect x="164" width="1" height="9" fill="#1E468A"/>
<rect x="169" y="4" width="1" height="9" transform="rotate(90 169 4)" fill="#1E468A"/>
<rect x="204" width="1" height="9" fill="#1E468A"/>
<rect x="209" y="4" width="1" height="9" transform="rotate(90 209 4)" fill="#1E468A"/>
<rect x="244" width="1" height="9" fill="#1E468A"/>
<rect x="249" y="4" width="1" height="9" transform="rotate(90 249 4)" fill="#1E468A"/>
<rect x="284" width="1" height="9" fill="#1E468A"/>
<rect x="289" y="4" width="1" height="9" transform="rotate(90 289 4)" fill="#1E468A"/>
<rect x="324" width="1" height="9" fill="#1E468A"/>
<rect x="329" y="4" width="1" height="9" transform="rotate(90 329 4)" fill="#1E468A"/>
<rect x="364" width="1" height="9" fill="#1E468A"/>
<rect x="369" y="4" width="1" height="9" transform="rotate(90 369 4)" fill="#1E468A"/>
<rect x="404" width="1" height="9" fill="#1E468A"/>
<rect x="409" y="4" width="1" height="9" transform="rotate(90 409 4)" fill="#1E468A"/>
<rect x="444" width="1" height="9" fill="#1E468A"/>
<rect x="449" y="4" width="1" height="9" transform="rotate(90 449 4)" fill="#1E468A"/>
<rect x="484" width="1" height="9" fill="#1E468A"/>
<rect x="489" y="4" width="1" height="9" transform="rotate(90 489 4)" fill="#1E468A"/>
<rect x="524" width="1" height="9" fill="#1E468A"/>
<rect x="529" y="4" width="1" height="9" transform="rotate(90 529 4)" fill="#1E468A"/>
<rect x="564" width="1" height="9" fill="#1E468A"/>
<rect x="569" y="4" width="1" height="9" transform="rotate(90 569 4)" fill="#1E468A"/>
<rect x="604" width="1" height="9" fill="#1E468A"/>
<rect x="609" y="4" width="1" height="9" transform="rotate(90 609 4)" fill="#1E468A"/>
<rect x="4" y="40" width="1" height="9" fill="#1E468A"/>
<rect x="9" y="44" width="1" height="9" transform="rotate(90 9 44)" fill="#1E468A"/>
<rect x="44" y="40" width="1" height="9" fill="#1E468A"/>
<rect x="49" y="44" width="1" height="9" transform="rotate(90 49 44)" fill="#1E468A"/>
<rect x="84" y="40" width="1" height="9" fill="#1E468A"/>
<rect x="89" y="44" width="1" height="9" transform="rotate(90 89 44)" fill="#1E468A"/>
<rect x="124" y="40" width="1" height="9" fill="#1E468A"/>
<rect x="129" y="44" width="1" height="9" transform="rotate(90 129 44)" fill="#1E468A"/>
<rect x="164" y="40" width="1" height="9" fill="#1E468A"/>
<rect x="169" y="44" width="1" height="9" transform="rotate(90 169 44)" fill="#1E468A"/>
<rect x="204" y="40" width="1" height="9" fill="#1E468A"/>
<rect x="209" y="44" width="1" height="9" transform="rotate(90 209 44)" fill="#1E468A"/>
<rect x="244" y="40" width="1" height="9" fill="#1E468A"/>
<rect x="249" y="44" width="1" height="9" transform="rotate(90 249 44)" fill="#1E468A"/>
<rect x="284" y="40" width="1" height="9" fill="#1E468A"/>
<rect x="289" y="44" width="1" height="9" transform="rotate(90 289 44)" fill="#1E468A"/>
<rect x="324" y="40" width="1" height="9" fill="#1E468A"/>
<rect x="329" y="44" width="1" height="9" transform="rotate(90 329 44)" fill="#1E468A"/>
<rect x="364" y="40" width="1" height="9" fill="#1E468A"/>
<rect x="369" y="44" width="1" height="9" transform="rotate(90 369 44)" fill="#1E468A"/>
<rect x="404" y="40" width="1" height="9" fill="#1E468A"/>
<rect x="409" y="44" width="1" height="9" transform="rotate(90 409 44)" fill="#1E468A"/>
<rect x="444" y="40" width="1" height="9" fill="#1E468A"/>
<rect x="449" y="44" width="1" height="9" transform="rotate(90 449 44)" fill="#1E468A"/>
<rect x="484" y="40" width="1" height="9" fill="#1E468A"/>
<rect x="489" y="44" width="1" height="9" transform="rotate(90 489 44)" fill="#1E468A"/>
<rect x="524" y="40" width="1" height="9" fill="#1E468A"/>
<rect x="529" y="44" width="1" height="9" transform="rotate(90 529 44)" fill="#1E468A"/>
<rect x="564" y="40" width="1" height="9" fill="#1E468A"/>
<rect x="569" y="44" width="1" height="9" transform="rotate(90 569 44)" fill="#1E468A"/>
<rect x="604" y="40" width="1" height="9" fill="#1E468A"/>
<rect x="609" y="44" width="1" height="9" transform="rotate(90 609 44)" fill="#1E468A"/>
<rect x="4" y="80" width="1" height="9" fill="#1E468A"/>
<rect x="9" y="84" width="1" height="9" transform="rotate(90 9 84)" fill="#1E468A"/>
<rect x="44" y="80" width="1" height="9" fill="#1E468A"/>
<rect x="49" y="84" width="1" height="9" transform="rotate(90 49 84)" fill="#1E468A"/>
<rect x="84" y="80" width="1" height="9" fill="#1E468A"/>
<rect x="89" y="84" width="1" height="9" transform="rotate(90 89 84)" fill="#1E468A"/>
<rect x="124" y="80" width="1" height="9" fill="#1E468A"/>
<rect x="129" y="84" width="1" height="9" transform="rotate(90 129 84)" fill="#1E468A"/>
<rect x="164" y="80" width="1" height="9" fill="#1E468A"/>
<rect x="169" y="84" width="1" height="9" transform="rotate(90 169 84)" fill="#1E468A"/>
<rect x="204" y="80" width="1" height="9" fill="#1E468A"/>
<rect x="209" y="84" width="1" height="9" transform="rotate(90 209 84)" fill="#1E468A"/>
<rect x="244" y="80" width="1" height="9" fill="#1E468A"/>
<rect x="249" y="84" width="1" height="9" transform="rotate(90 249 84)" fill="#1E468A"/>
<rect x="284" y="80" width="1" height="9" fill="#1E468A"/>
<rect x="289" y="84" width="1" height="9" transform="rotate(90 289 84)" fill="#1E468A"/>
<rect x="324" y="80" width="1" height="9" fill="#1E468A"/>
<rect x="329" y="84" width="1" height="9" transform="rotate(90 329 84)" fill="#1E468A"/>
<rect x="364" y="80" width="1" height="9" fill="#1E468A"/>
<rect x="369" y="84" width="1" height="9" transform="rotate(90 369 84)" fill="#1E468A"/>
<rect x="404" y="80" width="1" height="9" fill="#1E468A"/>
<rect x="409" y="84" width="1" height="9" transform="rotate(90 409 84)" fill="#1E468A"/>
<rect x="444" y="80" width="1" height="9" fill="#1E468A"/>
<rect x="449" y="84" width="1" height="9" transform="rotate(90 449 84)" fill="#1E468A"/>
<rect x="484" y="80" width="1" height="9" fill="#1E468A"/>
<rect x="489" y="84" width="1" height="9" transform="rotate(90 489 84)" fill="#1E468A"/>
<rect x="524" y="80" width="1" height="9" fill="#1E468A"/>
<rect x="529" y="84" width="1" height="9" transform="rotate(90 529 84)" fill="#1E468A"/>
<rect x="564" y="80" width="1" height="9" fill="#1E468A"/>
<rect x="569" y="84" width="1" height="9" transform="rotate(90 569 84)" fill="#1E468A"/>
<rect x="604" y="80" width="1" height="9" fill="#1E468A"/>
<rect x="609" y="84" width="1" height="9" transform="rotate(90 609 84)" fill="#1E468A"/>
<rect x="4" y="120" width="1" height="9" fill="#1E468A"/>
<rect x="9" y="124" width="1" height="9" transform="rotate(90 9 124)" fill="#1E468A"/>
<rect x="44" y="120" width="1" height="9" fill="#1E468A"/>
<rect x="49" y="124" width="1" height="9" transform="rotate(90 49 124)" fill="#1E468A"/>
<rect x="84" y="120" width="1" height="9" fill="#1E468A"/>
<rect x="89" y="124" width="1" height="9" transform="rotate(90 89 124)" fill="#1E468A"/>
<rect x="124" y="120" width="1" height="9" fill="#1E468A"/>
<rect x="129" y="124" width="1" height="9" transform="rotate(90 129 124)" fill="#1E468A"/>
<rect x="164" y="120" width="1" height="9" fill="#1E468A"/>
<rect x="169" y="124" width="1" height="9" transform="rotate(90 169 124)" fill="#1E468A"/>
<rect x="204" y="120" width="1" height="9" fill="#1E468A"/>
<rect x="209" y="124" width="1" height="9" transform="rotate(90 209 124)" fill="#1E468A"/>
<rect x="244" y="120" width="1" height="9" fill="#1E468A"/>
<rect x="249" y="124" width="1" height="9" transform="rotate(90 249 124)" fill="#1E468A"/>
<rect x="284" y="120" width="1" height="9" fill="#1E468A"/>
<rect x="289" y="124" width="1" height="9" transform="rotate(90 289 124)" fill="#1E468A"/>
<rect x="324" y="120" width="1" height="9" fill="#1E468A"/>
<rect x="329" y="124" width="1" height="9" transform="rotate(90 329 124)" fill="#1E468A"/>
<rect x="364" y="120" width="1" height="9" fill="#1E468A"/>
<rect x="369" y="124" width="1" height="9" transform="rotate(90 369 124)" fill="#1E468A"/>
<rect x="404" y="120" width="1" height="9" fill="#1E468A"/>
<rect x="409" y="124" width="1" height="9" transform="rotate(90 409 124)" fill="#1E468A"/>
<rect x="444" y="120" width="1" height="9" fill="#1E468A"/>
<rect x="449" y="124" width="1" height="9" transform="rotate(90 449 124)" fill="#1E468A"/>
<rect x="484" y="120" width="1" height="9" fill="#1E468A"/>
<rect x="489" y="124" width="1" height="9" transform="rotate(90 489 124)" fill="#1E468A"/>
<rect x="524" y="120" width="1" height="9" fill="#1E468A"/>
<rect x="529" y="124" width="1" height="9" transform="rotate(90 529 124)" fill="#1E468A"/>
<rect x="564" y="120" width="1" height="9" fill="#1E468A"/>
<rect x="569" y="124" width="1" height="9" transform="rotate(90 569 124)" fill="#1E468A"/>
<rect x="604" y="120" width="1" height="9" fill="#1E468A"/>
<rect x="609" y="124" width="1" height="9" transform="rotate(90 609 124)" fill="#1E468A"/>
<rect x="4" y="160" width="1" height="9" fill="#1E468A"/>
<rect x="9" y="164" width="1" height="9" transform="rotate(90 9 164)" fill="#1E468A"/>
<rect x="44" y="160" width="1" height="9" fill="#1E468A"/>
<rect x="49" y="164" width="1" height="9" transform="rotate(90 49 164)" fill="#1E468A"/>
<rect x="84" y="160" width="1" height="9" fill="#1E468A"/>
<rect x="89" y="164" width="1" height="9" transform="rotate(90 89 164)" fill="#1E468A"/>
<rect x="124" y="160" width="1" height="9" fill="#1E468A"/>
<rect x="129" y="164" width="1" height="9" transform="rotate(90 129 164)" fill="#1E468A"/>
<rect x="164" y="160" width="1" height="9" fill="#1E468A"/>
<rect x="169" y="164" width="1" height="9" transform="rotate(90 169 164)" fill="#1E468A"/>
<rect x="204" y="160" width="1" height="9" fill="#1E468A"/>
<rect x="209" y="164" width="1" height="9" transform="rotate(90 209 164)" fill="#1E468A"/>
<rect x="244" y="160" width="1" height="9" fill="#1E468A"/>
<rect x="249" y="164" width="1" height="9" transform="rotate(90 249 164)" fill="#1E468A"/>
<rect x="284" y="160" width="1" height="9" fill="#1E468A"/>
<rect x="289" y="164" width="1" height="9" transform="rotate(90 289 164)" fill="#1E468A"/>
<rect x="324" y="160" width="1" height="9" fill="#1E468A"/>
<rect x="329" y="164" width="1" height="9" transform="rotate(90 329 164)" fill="#1E468A"/>
<rect x="364" y="160" width="1" height="9" fill="#1E468A"/>
<rect x="369" y="164" width="1" height="9" transform="rotate(90 369 164)" fill="#1E468A"/>
<rect x="404" y="160" width="1" height="9" fill="#1E468A"/>
<rect x="409" y="164" width="1" height="9" transform="rotate(90 409 164)" fill="#1E468A"/>
<rect x="444" y="160" width="1" height="9" fill="#1E468A"/>
<rect x="449" y="164" width="1" height="9" transform="rotate(90 449 164)" fill="#1E468A"/>
<rect x="484" y="160" width="1" height="9" fill="#1E468A"/>
<rect x="489" y="164" width="1" height="9" transform="rotate(90 489 164)" fill="#1E468A"/>
<rect x="524" y="160" width="1" height="9" fill="#1E468A"/>
<rect x="529" y="164" width="1" height="9" transform="rotate(90 529 164)" fill="#1E468A"/>
<rect x="564" y="160" width="1" height="9" fill="#1E468A"/>
<rect x="569" y="164" width="1" height="9" transform="rotate(90 569 164)" fill="#1E468A"/>
<rect x="604" y="160" width="1" height="9" fill="#1E468A"/>
<rect x="609" y="164" width="1" height="9" transform="rotate(90 609 164)" fill="#1E468A"/>
<rect x="4" y="200" width="1" height="9" fill="#1E468A"/>
<rect x="9" y="204" width="1" height="9" transform="rotate(90 9 204)" fill="#1E468A"/>
<rect x="44" y="200" width="1" height="9" fill="#1E468A"/>
<rect x="49" y="204" width="1" height="9" transform="rotate(90 49 204)" fill="#1E468A"/>
<rect x="84" y="200" width="1" height="9" fill="#1E468A"/>
<rect x="89" y="204" width="1" height="9" transform="rotate(90 89 204)" fill="#1E468A"/>
<rect x="124" y="200" width="1" height="9" fill="#1E468A"/>
<rect x="129" y="204" width="1" height="9" transform="rotate(90 129 204)" fill="#1E468A"/>
<rect x="164" y="200" width="1" height="9" fill="#1E468A"/>
<rect x="169" y="204" width="1" height="9" transform="rotate(90 169 204)" fill="#1E468A"/>
<rect x="204" y="200" width="1" height="9" fill="#1E468A"/>
<rect x="209" y="204" width="1" height="9" transform="rotate(90 209 204)" fill="#1E468A"/>
<rect x="244" y="200" width="1" height="9" fill="#1E468A"/>
<rect x="249" y="204" width="1" height="9" transform="rotate(90 249 204)" fill="#1E468A"/>
<rect x="284" y="200" width="1" height="9" fill="#1E468A"/>
<rect x="289" y="204" width="1" height="9" transform="rotate(90 289 204)" fill="#1E468A"/>
<rect x="324" y="200" width="1" height="9" fill="#1E468A"/>
<rect x="329" y="204" width="1" height="9" transform="rotate(90 329 204)" fill="#1E468A"/>
<rect x="364" y="200" width="1" height="9" fill="#1E468A"/>
<rect x="369" y="204" width="1" height="9" transform="rotate(90 369 204)" fill="#1E468A"/>
<rect x="404" y="200" width="1" height="9" fill="#1E468A"/>
<rect x="409" y="204" width="1" height="9" transform="rotate(90 409 204)" fill="#1E468A"/>
<rect x="444" y="200" width="1" height="9" fill="#1E468A"/>
<rect x="449" y="204" width="1" height="9" transform="rotate(90 449 204)" fill="#1E468A"/>
<rect x="484" y="200" width="1" height="9" fill="#1E468A"/>
<rect x="489" y="204" width="1" height="9" transform="rotate(90 489 204)" fill="#1E468A"/>
<rect x="524" y="200" width="1" height="9" fill="#1E468A"/>
<rect x="529" y="204" width="1" height="9" transform="rotate(90 529 204)" fill="#1E468A"/>
<rect x="564" y="200" width="1" height="9" fill="#1E468A"/>
<rect x="569" y="204" width="1" height="9" transform="rotate(90 569 204)" fill="#1E468A"/>
<rect x="604" y="200" width="1" height="9" fill="#1E468A"/>
<rect x="609" y="204" width="1" height="9" transform="rotate(90 609 204)" fill="#1E468A"/>
<rect x="4" y="240" width="1" height="9" fill="#1E468A"/>
<rect x="9" y="244" width="1" height="9" transform="rotate(90 9 244)" fill="#1E468A"/>
<rect x="44" y="240" width="1" height="9" fill="#1E468A"/>
<rect x="49" y="244" width="1" height="9" transform="rotate(90 49 244)" fill="#1E468A"/>
<rect x="84" y="240" width="1" height="9" fill="#1E468A"/>
<rect x="89" y="244" width="1" height="9" transform="rotate(90 89 244)" fill="#1E468A"/>
<rect x="124" y="240" width="1" height="9" fill="#1E468A"/>
<rect x="129" y="244" width="1" height="9" transform="rotate(90 129 244)" fill="#1E468A"/>
<rect x="164" y="240" width="1" height="9" fill="#1E468A"/>
<rect x="169" y="244" width="1" height="9" transform="rotate(90 169 244)" fill="#1E468A"/>
<rect x="204" y="240" width="1" height="9" fill="#1E468A"/>
<rect x="209" y="244" width="1" height="9" transform="rotate(90 209 244)" fill="#1E468A"/>
<rect x="244" y="240" width="1" height="9" fill="#1E468A"/>
<rect x="249" y="244" width="1" height="9" transform="rotate(90 249 244)" fill="#1E468A"/>
<rect x="284" y="240" width="1" height="9" fill="#1E468A"/>
<rect x="289" y="244" width="1" height="9" transform="rotate(90 289 244)" fill="#1E468A"/>
<rect x="324" y="240" width="1" height="9" fill="#1E468A"/>
<rect x="329" y="244" width="1" height="9" transform="rotate(90 329 244)" fill="#1E468A"/>
<rect x="364" y="240" width="1" height="9" fill="#1E468A"/>
<rect x="369" y="244" width="1" height="9" transform="rotate(90 369 244)" fill="#1E468A"/>
<rect x="404" y="240" width="1" height="9" fill="#1E468A"/>
<rect x="409" y="244" width="1" height="9" transform="rotate(90 409 244)" fill="#1E468A"/>
<rect x="444" y="240" width="1" height="9" fill="#1E468A"/>
<rect x="449" y="244" width="1" height="9" transform="rotate(90 449 244)" fill="#1E468A"/>
<rect x="484" y="240" width="1" height="9" fill="#1E468A"/>
<rect x="489" y="244" width="1" height="9" transform="rotate(90 489 244)" fill="#1E468A"/>
<rect x="524" y="240" width="1" height="9" fill="#1E468A"/>
<rect x="529" y="244" width="1" height="9" transform="rotate(90 529 244)" fill="#1E468A"/>
<rect x="564" y="240" width="1" height="9" fill="#1E468A"/>
<rect x="569" y="244" width="1" height="9" transform="rotate(90 569 244)" fill="#1E468A"/>
<rect x="604" y="240" width="1" height="9" fill="#1E468A"/>
<rect x="609" y="244" width="1" height="9" transform="rotate(90 609 244)" fill="#1E468A"/>
<rect x="4" y="280" width="1" height="9" fill="#1E468A"/>
<rect x="9" y="284" width="1" height="9" transform="rotate(90 9 284)" fill="#1E468A"/>
<rect x="44" y="280" width="1" height="9" fill="#1E468A"/>
<rect x="49" y="284" width="1" height="9" transform="rotate(90 49 284)" fill="#1E468A"/>
<rect x="84" y="280" width="1" height="9" fill="#1E468A"/>
<rect x="89" y="284" width="1" height="9" transform="rotate(90 89 284)" fill="#1E468A"/>
<rect x="124" y="280" width="1" height="9" fill="#1E468A"/>
<rect x="129" y="284" width="1" height="9" transform="rotate(90 129 284)" fill="#1E468A"/>
<rect x="164" y="280" width="1" height="9" fill="#1E468A"/>
<rect x="169" y="284" width="1" height="9" transform="rotate(90 169 284)" fill="#1E468A"/>
<rect x="204" y="280" width="1" height="9" fill="#1E468A"/>
<rect x="209" y="284" width="1" height="9" transform="rotate(90 209 284)" fill="#1E468A"/>
<rect x="244" y="280" width="1" height="9" fill="#1E468A"/>
<rect x="249" y="284" width="1" height="9" transform="rotate(90 249 284)" fill="#1E468A"/>
<rect x="284" y="280" width="1" height="9" fill="#1E468A"/>
<rect x="289" y="284" width="1" height="9" transform="rotate(90 289 284)" fill="#1E468A"/>
<rect x="324" y="280" width="1" height="9" fill="#1E468A"/>
<rect x="329" y="284" width="1" height="9" transform="rotate(90 329 284)" fill="#1E468A"/>
<rect x="364" y="280" width="1" height="9" fill="#1E468A"/>
<rect x="369" y="284" width="1" height="9" transform="rotate(90 369 284)" fill="#1E468A"/>
<rect x="404" y="280" width="1" height="9" fill="#1E468A"/>
<rect x="409" y="284" width="1" height="9" transform="rotate(90 409 284)" fill="#1E468A"/>
<rect x="444" y="280" width="1" height="9" fill="#1E468A"/>
<rect x="449" y="284" width="1" height="9" transform="rotate(90 449 284)" fill="#1E468A"/>
<rect x="484" y="280" width="1" height="9" fill="#1E468A"/>
<rect x="489" y="284" width="1" height="9" transform="rotate(90 489 284)" fill="#1E468A"/>
<rect x="524" y="280" width="1" height="9" fill="#1E468A"/>
<rect x="529" y="284" width="1" height="9" transform="rotate(90 529 284)" fill="#1E468A"/>
<rect x="564" y="280" width="1" height="9" fill="#1E468A"/>
<rect x="569" y="284" width="1" height="9" transform="rotate(90 569 284)" fill="#1E468A"/>
<rect x="604" y="280" width="1" height="9" fill="#1E468A"/>
<rect x="609" y="284" width="1" height="9" transform="rotate(90 609 284)" fill="#1E468A"/>
<rect x="4" y="320" width="1" height="9" fill="#1E468A"/>
<rect x="9" y="324" width="1" height="9" transform="rotate(90 9 324)" fill="#1E468A"/>
<rect x="44" y="320" width="1" height="9" fill="#1E468A"/>
<rect x="49" y="324" width="1" height="9" transform="rotate(90 49 324)" fill="#1E468A"/>
<rect x="84" y="320" width="1" height="9" fill="#1E468A"/>
<rect x="89" y="324" width="1" height="9" transform="rotate(90 89 324)" fill="#1E468A"/>
<rect x="124" y="320" width="1" height="9" fill="#1E468A"/>
<rect x="129" y="324" width="1" height="9" transform="rotate(90 129 324)" fill="#1E468A"/>
<rect x="164" y="320" width="1" height="9" fill="#1E468A"/>
<rect x="169" y="324" width="1" height="9" transform="rotate(90 169 324)" fill="#1E468A"/>
<rect x="204" y="320" width="1" height="9" fill="#1E468A"/>
<rect x="209" y="324" width="1" height="9" transform="rotate(90 209 324)" fill="#1E468A"/>
<rect x="244" y="320" width="1" height="9" fill="#1E468A"/>
<rect x="249" y="324" width="1" height="9" transform="rotate(90 249 324)" fill="#1E468A"/>
<rect x="284" y="320" width="1" height="9" fill="#1E468A"/>
<rect x="289" y="324" width="1" height="9" transform="rotate(90 289 324)" fill="#1E468A"/>
<rect x="324" y="320" width="1" height="9" fill="#1E468A"/>
<rect x="329" y="324" width="1" height="9" transform="rotate(90 329 324)" fill="#1E468A"/>
<rect x="364" y="320" width="1" height="9" fill="#1E468A"/>
<rect x="369" y="324" width="1" height="9" transform="rotate(90 369 324)" fill="#1E468A"/>
<rect x="404" y="320" width="1" height="9" fill="#1E468A"/>
<rect x="409" y="324" width="1" height="9" transform="rotate(90 409 324)" fill="#1E468A"/>
<rect x="444" y="320" width="1" height="9" fill="#1E468A"/>
<rect x="449" y="324" width="1" height="9" transform="rotate(90 449 324)" fill="#1E468A"/>
<rect x="484" y="320" width="1" height="9" fill="#1E468A"/>
<rect x="489" y="324" width="1" height="9" transform="rotate(90 489 324)" fill="#1E468A"/>
<rect x="524" y="320" width="1" height="9" fill="#1E468A"/>
<rect x="529" y="324" width="1" height="9" transform="rotate(90 529 324)" fill="#1E468A"/>
<rect x="564" y="320" width="1" height="9" fill="#1E468A"/>
<rect x="569" y="324" width="1" height="9" transform="rotate(90 569 324)" fill="#1E468A"/>
<rect x="604" y="320" width="1" height="9" fill="#1E468A"/>
<rect x="609" y="324" width="1" height="9" transform="rotate(90 609 324)" fill="#1E468A"/>
<rect x="4" y="360" width="1" height="9" fill="#1E468A"/>
<rect x="9" y="364" width="1" height="9" transform="rotate(90 9 364)" fill="#1E468A"/>
<rect x="44" y="360" width="1" height="9" fill="#1E468A"/>
<rect x="49" y="364" width="1" height="9" transform="rotate(90 49 364)" fill="#1E468A"/>
<rect x="84" y="360" width="1" height="9" fill="#1E468A"/>
<rect x="89" y="364" width="1" height="9" transform="rotate(90 89 364)" fill="#1E468A"/>
<rect x="124" y="360" width="1" height="9" fill="#1E468A"/>
<rect x="129" y="364" width="1" height="9" transform="rotate(90 129 364)" fill="#1E468A"/>
<rect x="164" y="360" width="1" height="9" fill="#1E468A"/>
<rect x="169" y="364" width="1" height="9" transform="rotate(90 169 364)" fill="#1E468A"/>
<rect x="204" y="360" width="1" height="9" fill="#1E468A"/>
<rect x="209" y="364" width="1" height="9" transform="rotate(90 209 364)" fill="#1E468A"/>
<rect x="244" y="360" width="1" height="9" fill="#1E468A"/>
<rect x="249" y="364" width="1" height="9" transform="rotate(90 249 364)" fill="#1E468A"/>
<rect x="284" y="360" width="1" height="9" fill="#1E468A"/>
<rect x="289" y="364" width="1" height="9" transform="rotate(90 289 364)" fill="#1E468A"/>
<rect x="324" y="360" width="1" height="9" fill="#1E468A"/>
<rect x="329" y="364" width="1" height="9" transform="rotate(90 329 364)" fill="#1E468A"/>
<rect x="364" y="360" width="1" height="9" fill="#1E468A"/>
<rect x="369" y="364" width="1" height="9" transform="rotate(90 369 364)" fill="#1E468A"/>
<rect x="404" y="360" width="1" height="9" fill="#1E468A"/>
<rect x="409" y="364" width="1" height="9" transform="rotate(90 409 364)" fill="#1E468A"/>
<rect x="444" y="360" width="1" height="9" fill="#1E468A"/>
<rect x="449" y="364" width="1" height="9" transform="rotate(90 449 364)" fill="#1E468A"/>
<rect x="484" y="360" width="1" height="9" fill="#1E468A"/>
<rect x="489" y="364" width="1" height="9" transform="rotate(90 489 364)" fill="#1E468A"/>
<rect x="524" y="360" width="1" height="9" fill="#1E468A"/>
<rect x="529" y="364" width="1" height="9" transform="rotate(90 529 364)" fill="#1E468A"/>
<rect x="564" y="360" width="1" height="9" fill="#1E468A"/>
<rect x="569" y="364" width="1" height="9" transform="rotate(90 569 364)" fill="#1E468A"/>
<rect x="604" y="360" width="1" height="9" fill="#1E468A"/>
<rect x="609" y="364" width="1" height="9" transform="rotate(90 609 364)" fill="#1E468A"/>
<rect x="4" y="400" width="1" height="9" fill="#1E468A"/>
<rect x="9" y="404" width="1" height="9" transform="rotate(90 9 404)" fill="#1E468A"/>
<rect x="44" y="400" width="1" height="9" fill="#1E468A"/>
<rect x="49" y="404" width="1" height="9" transform="rotate(90 49 404)" fill="#1E468A"/>
<rect x="84" y="400" width="1" height="9" fill="#1E468A"/>
<rect x="89" y="404" width="1" height="9" transform="rotate(90 89 404)" fill="#1E468A"/>
<rect x="124" y="400" width="1" height="9" fill="#1E468A"/>
<rect x="129" y="404" width="1" height="9" transform="rotate(90 129 404)" fill="#1E468A"/>
<rect x="164" y="400" width="1" height="9" fill="#1E468A"/>
<rect x="169" y="404" width="1" height="9" transform="rotate(90 169 404)" fill="#1E468A"/>
<rect x="204" y="400" width="1" height="9" fill="#1E468A"/>
<rect x="209" y="404" width="1" height="9" transform="rotate(90 209 404)" fill="#1E468A"/>
<rect x="244" y="400" width="1" height="9" fill="#1E468A"/>
<rect x="249" y="404" width="1" height="9" transform="rotate(90 249 404)" fill="#1E468A"/>
<rect x="284" y="400" width="1" height="9" fill="#1E468A"/>
<rect x="289" y="404" width="1" height="9" transform="rotate(90 289 404)" fill="#1E468A"/>
<rect x="324" y="400" width="1" height="9" fill="#1E468A"/>
<rect x="329" y="404" width="1" height="9" transform="rotate(90 329 404)" fill="#1E468A"/>
<rect x="364" y="400" width="1" height="9" fill="#1E468A"/>
<rect x="369" y="404" width="1" height="9" transform="rotate(90 369 404)" fill="#1E468A"/>
<rect x="404" y="400" width="1" height="9" fill="#1E468A"/>
<rect x="409" y="404" width="1" height="9" transform="rotate(90 409 404)" fill="#1E468A"/>
<rect x="444" y="400" width="1" height="9" fill="#1E468A"/>
<rect x="449" y="404" width="1" height="9" transform="rotate(90 449 404)" fill="#1E468A"/>
<rect x="484" y="400" width="1" height="9" fill="#1E468A"/>
<rect x="489" y="404" width="1" height="9" transform="rotate(90 489 404)" fill="#1E468A"/>
<rect x="524" y="400" width="1" height="9" fill="#1E468A"/>
<rect x="529" y="404" width="1" height="9" transform="rotate(90 529 404)" fill="#1E468A"/>
<rect x="564" y="400" width="1" height="9" fill="#1E468A"/>
<rect x="569" y="404" width="1" height="9" transform="rotate(90 569 404)" fill="#1E468A"/>
<rect x="604" y="400" width="1" height="9" fill="#1E468A"/>
<rect x="609" y="404" width="1" height="9" transform="rotate(90 609 404)" fill="#1E468A"/>
<rect x="4" y="440" width="1" height="9" fill="#1E468A"/>
<rect x="9" y="444" width="1" height="9" transform="rotate(90 9 444)" fill="#1E468A"/>
<rect x="44" y="440" width="1" height="9" fill="#1E468A"/>
<rect x="49" y="444" width="1" height="9" transform="rotate(90 49 444)" fill="#1E468A"/>
<rect x="84" y="440" width="1" height="9" fill="#1E468A"/>
<rect x="89" y="444" width="1" height="9" transform="rotate(90 89 444)" fill="#1E468A"/>
<rect x="124" y="440" width="1" height="9" fill="#1E468A"/>
<rect x="129" y="444" width="1" height="9" transform="rotate(90 129 444)" fill="#1E468A"/>
<rect x="164" y="440" width="1" height="9" fill="#1E468A"/>
<rect x="169" y="444" width="1" height="9" transform="rotate(90 169 444)" fill="#1E468A"/>
<rect x="204" y="440" width="1" height="9" fill="#1E468A"/>
<rect x="209" y="444" width="1" height="9" transform="rotate(90 209 444)" fill="#1E468A"/>
<rect x="244" y="440" width="1" height="9" fill="#1E468A"/>
<rect x="249" y="444" width="1" height="9" transform="rotate(90 249 444)" fill="#1E468A"/>
<rect x="284" y="440" width="1" height="9" fill="#1E468A"/>
<rect x="289" y="444" width="1" height="9" transform="rotate(90 289 444)" fill="#1E468A"/>
<rect x="324" y="440" width="1" height="9" fill="#1E468A"/>
<rect x="329" y="444" width="1" height="9" transform="rotate(90 329 444)" fill="#1E468A"/>
<rect x="364" y="440" width="1" height="9" fill="#1E468A"/>
<rect x="369" y="444" width="1" height="9" transform="rotate(90 369 444)" fill="#1E468A"/>
<rect x="404" y="440" width="1" height="9" fill="#1E468A"/>
<rect x="409" y="444" width="1" height="9" transform="rotate(90 409 444)" fill="#1E468A"/>
<rect x="444" y="440" width="1" height="9" fill="#1E468A"/>
<rect x="449" y="444" width="1" height="9" transform="rotate(90 449 444)" fill="#1E468A"/>
<rect x="484" y="440" width="1" height="9" fill="#1E468A"/>
<rect x="489" y="444" width="1" height="9" transform="rotate(90 489 444)" fill="#1E468A"/>
<rect x="524" y="440" width="1" height="9" fill="#1E468A"/>
<rect x="529" y="444" width="1" height="9" transform="rotate(90 529 444)" fill="#1E468A"/>
<rect x="564" y="440" width="1" height="9" fill="#1E468A"/>
<rect x="569" y="444" width="1" height="9" transform="rotate(90 569 444)" fill="#1E468A"/>
<rect x="604" y="440" width="1" height="9" fill="#1E468A"/>
<rect x="609" y="444" width="1" height="9" transform="rotate(90 609 444)" fill="#1E468A"/>
<rect x="4" y="480" width="1" height="9" fill="#1E468A"/>
<rect x="9" y="484" width="1" height="9" transform="rotate(90 9 484)" fill="#1E468A"/>
<rect x="44" y="480" width="1" height="9" fill="#1E468A"/>
<rect x="49" y="484" width="1" height="9" transform="rotate(90 49 484)" fill="#1E468A"/>
<rect x="84" y="480" width="1" height="9" fill="#1E468A"/>
<rect x="89" y="484" width="1" height="9" transform="rotate(90 89 484)" fill="#1E468A"/>
<rect x="124" y="480" width="1" height="9" fill="#1E468A"/>
<rect x="129" y="484" width="1" height="9" transform="rotate(90 129 484)" fill="#1E468A"/>
<rect x="164" y="480" width="1" height="9" fill="#1E468A"/>
<rect x="169" y="484" width="1" height="9" transform="rotate(90 169 484)" fill="#1E468A"/>
<rect x="204" y="480" width="1" height="9" fill="#1E468A"/>
<rect x="209" y="484" width="1" height="9" transform="rotate(90 209 484)" fill="#1E468A"/>
<rect x="244" y="480" width="1" height="9" fill="#1E468A"/>
<rect x="249" y="484" width="1" height="9" transform="rotate(90 249 484)" fill="#1E468A"/>
<rect x="284" y="480" width="1" height="9" fill="#1E468A"/>
<rect x="289" y="484" width="1" height="9" transform="rotate(90 289 484)" fill="#1E468A"/>
<rect x="324" y="480" width="1" height="9" fill="#1E468A"/>
<rect x="329" y="484" width="1" height="9" transform="rotate(90 329 484)" fill="#1E468A"/>
<rect x="364" y="480" width="1" height="9" fill="#1E468A"/>
<rect x="369" y="484" width="1" height="9" transform="rotate(90 369 484)" fill="#1E468A"/>
<rect x="404" y="480" width="1" height="9" fill="#1E468A"/>
<rect x="409" y="484" width="1" height="9" transform="rotate(90 409 484)" fill="#1E468A"/>
<rect x="444" y="480" width="1" height="9" fill="#1E468A"/>
<rect x="449" y="484" width="1" height="9" transform="rotate(90 449 484)" fill="#1E468A"/>
<rect x="484" y="480" width="1" height="9" fill="#1E468A"/>
<rect x="489" y="484" width="1" height="9" transform="rotate(90 489 484)" fill="#1E468A"/>
<rect x="524" y="480" width="1" height="9" fill="#1E468A"/>
<rect x="529" y="484" width="1" height="9" transform="rotate(90 529 484)" fill="#1E468A"/>
<rect x="564" y="480" width="1" height="9" fill="#1E468A"/>
<rect x="569" y="484" width="1" height="9" transform="rotate(90 569 484)" fill="#1E468A"/>
<rect x="604" y="480" width="1" height="9" fill="#1E468A"/>
<rect x="609" y="484" width="1" height="9" transform="rotate(90 609 484)" fill="#1E468A"/>
<rect x="4" y="520" width="1" height="9" fill="#1E468A"/>
<rect x="9" y="524" width="1" height="9" transform="rotate(90 9 524)" fill="#1E468A"/>
<rect x="44" y="520" width="1" height="9" fill="#1E468A"/>
<rect x="49" y="524" width="1" height="9" transform="rotate(90 49 524)" fill="#1E468A"/>
<rect x="84" y="520" width="1" height="9" fill="#1E468A"/>
<rect x="89" y="524" width="1" height="9" transform="rotate(90 89 524)" fill="#1E468A"/>
<rect x="124" y="520" width="1" height="9" fill="#1E468A"/>
<rect x="129" y="524" width="1" height="9" transform="rotate(90 129 524)" fill="#1E468A"/>
<rect x="164" y="520" width="1" height="9" fill="#1E468A"/>
<rect x="169" y="524" width="1" height="9" transform="rotate(90 169 524)" fill="#1E468A"/>
<rect x="204" y="520" width="1" height="9" fill="#1E468A"/>
<rect x="209" y="524" width="1" height="9" transform="rotate(90 209 524)" fill="#1E468A"/>
<rect x="244" y="520" width="1" height="9" fill="#1E468A"/>
<rect x="249" y="524" width="1" height="9" transform="rotate(90 249 524)" fill="#1E468A"/>
<rect x="284" y="520" width="1" height="9" fill="#1E468A"/>
<rect x="289" y="524" width="1" height="9" transform="rotate(90 289 524)" fill="#1E468A"/>
<rect x="324" y="520" width="1" height="9" fill="#1E468A"/>
<rect x="329" y="524" width="1" height="9" transform="rotate(90 329 524)" fill="#1E468A"/>
<rect x="364" y="520" width="1" height="9" fill="#1E468A"/>
<rect x="369" y="524" width="1" height="9" transform="rotate(90 369 524)" fill="#1E468A"/>
<rect x="404" y="520" width="1" height="9" fill="#1E468A"/>
<rect x="409" y="524" width="1" height="9" transform="rotate(90 409 524)" fill="#1E468A"/>
<rect x="444" y="520" width="1" height="9" fill="#1E468A"/>
<rect x="449" y="524" width="1" height="9" transform="rotate(90 449 524)" fill="#1E468A"/>
<rect x="484" y="520" width="1" height="9" fill="#1E468A"/>
<rect x="489" y="524" width="1" height="9" transform="rotate(90 489 524)" fill="#1E468A"/>
<rect x="524" y="520" width="1" height="9" fill="#1E468A"/>
<rect x="529" y="524" width="1" height="9" transform="rotate(90 529 524)" fill="#1E468A"/>
<rect x="564" y="520" width="1" height="9" fill="#1E468A"/>
<rect x="569" y="524" width="1" height="9" transform="rotate(90 569 524)" fill="#1E468A"/>
<rect x="604" y="520" width="1" height="9" fill="#1E468A"/>
<rect x="609" y="524" width="1" height="9" transform="rotate(90 609 524)" fill="#1E468A"/>
<rect x="4" y="560" width="1" height="9" fill="#1E468A"/>
<rect x="9" y="564" width="1" height="9" transform="rotate(90 9 564)" fill="#1E468A"/>
<rect x="44" y="560" width="1" height="9" fill="#1E468A"/>
<rect x="49" y="564" width="1" height="9" transform="rotate(90 49 564)" fill="#1E468A"/>
<rect x="84" y="560" width="1" height="9" fill="#1E468A"/>
<rect x="89" y="564" width="1" height="9" transform="rotate(90 89 564)" fill="#1E468A"/>
<rect x="124" y="560" width="1" height="9" fill="#1E468A"/>
<rect x="129" y="564" width="1" height="9" transform="rotate(90 129 564)" fill="#1E468A"/>
<rect x="164" y="560" width="1" height="9" fill="#1E468A"/>
<rect x="169" y="564" width="1" height="9" transform="rotate(90 169 564)" fill="#1E468A"/>
<rect x="204" y="560" width="1" height="9" fill="#1E468A"/>
<rect x="209" y="564" width="1" height="9" transform="rotate(90 209 564)" fill="#1E468A"/>
<rect x="244" y="560" width="1" height="9" fill="#1E468A"/>
<rect x="249" y="564" width="1" height="9" transform="rotate(90 249 564)" fill="#1E468A"/>
<rect x="284" y="560" width="1" height="9" fill="#1E468A"/>
<rect x="289" y="564" width="1" height="9" transform="rotate(90 289 564)" fill="#1E468A"/>
<rect x="324" y="560" width="1" height="9" fill="#1E468A"/>
<rect x="329" y="564" width="1" height="9" transform="rotate(90 329 564)" fill="#1E468A"/>
<rect x="364" y="560" width="1" height="9" fill="#1E468A"/>
<rect x="369" y="564" width="1" height="9" transform="rotate(90 369 564)" fill="#1E468A"/>
<rect x="404" y="560" width="1" height="9" fill="#1E468A"/>
<rect x="409" y="564" width="1" height="9" transform="rotate(90 409 564)" fill="#1E468A"/>
<rect x="444" y="560" width="1" height="9" fill="#1E468A"/>
<rect x="449" y="564" width="1" height="9" transform="rotate(90 449 564)" fill="#1E468A"/>
<rect x="484" y="560" width="1" height="9" fill="#1E468A"/>
<rect x="489" y="564" width="1" height="9" transform="rotate(90 489 564)" fill="#1E468A"/>
<rect x="524" y="560" width="1" height="9" fill="#1E468A"/>
<rect x="529" y="564" width="1" height="9" transform="rotate(90 529 564)" fill="#1E468A"/>
<rect x="564" y="560" width="1" height="9" fill="#1E468A"/>
<rect x="569" y="564" width="1" height="9" transform="rotate(90 569 564)" fill="#1E468A"/>
<rect x="604" y="560" width="1" height="9" fill="#1E468A"/>
<rect x="609" y="564" width="1" height="9" transform="rotate(90 609 564)" fill="#1E468A"/>
<rect x="4" y="600" width="1" height="9" fill="#1E468A"/>
<rect x="9" y="604" width="1" height="9" transform="rotate(90 9 604)" fill="#1E468A"/>
<rect x="44" y="600" width="1" height="9" fill="#1E468A"/>
<rect x="49" y="604" width="1" height="9" transform="rotate(90 49 604)" fill="#1E468A"/>
<rect x="84" y="600" width="1" height="9" fill="#1E468A"/>
<rect x="89" y="604" width="1" height="9" transform="rotate(90 89 604)" fill="#1E468A"/>
<rect x="124" y="600" width="1" height="9" fill="#1E468A"/>
<rect x="129" y="604" width="1" height="9" transform="rotate(90 129 604)" fill="#1E468A"/>
<rect x="164" y="600" width="1" height="9" fill="#1E468A"/>
<rect x="169" y="604" width="1" height="9" transform="rotate(90 169 604)" fill="#1E468A"/>
<rect x="204" y="600" width="1" height="9" fill="#1E468A"/>
<rect x="209" y="604" width="1" height="9" transform="rotate(90 209 604)" fill="#1E468A"/>
<rect x="244" y="600" width="1" height="9" fill="#1E468A"/>
<rect x="249" y="604" width="1" height="9" transform="rotate(90 249 604)" fill="#1E468A"/>
<rect x="284" y="600" width="1" height="9" fill="#1E468A"/>
<rect x="289" y="604" width="1" height="9" transform="rotate(90 289 604)" fill="#1E468A"/>
<rect x="324" y="600" width="1" height="9" fill="#1E468A"/>
<rect x="329" y="604" width="1" height="9" transform="rotate(90 329 604)" fill="#1E468A"/>
<rect x="364" y="600" width="1" height="9" fill="#1E468A"/>
<rect x="369" y="604" width="1" height="9" transform="rotate(90 369 604)" fill="#1E468A"/>
<rect x="404" y="600" width="1" height="9" fill="#1E468A"/>
<rect x="409" y="604" width="1" height="9" transform="rotate(90 409 604)" fill="#1E468A"/>
<rect x="444" y="600" width="1" height="9" fill="#1E468A"/>
<rect x="449" y="604" width="1" height="9" transform="rotate(90 449 604)" fill="#1E468A"/>
<rect x="484" y="600" width="1" height="9" fill="#1E468A"/>
<rect x="489" y="604" width="1" height="9" transform="rotate(90 489 604)" fill="#1E468A"/>
<rect x="524" y="600" width="1" height="9" fill="#1E468A"/>
<rect x="529" y="604" width="1" height="9" transform="rotate(90 529 604)" fill="#1E468A"/>
<rect x="564" y="600" width="1" height="9" fill="#1E468A"/>
<rect x="569" y="604" width="1" height="9" transform="rotate(90 569 604)" fill="#1E468A"/>
<rect x="604" y="600" width="1" height="9" fill="#1E468A"/>
<rect x="609" y="604" width="1" height="9" transform="rotate(90 609 604)" fill="#1E468A"/>
<rect x="4" y="640" width="1" height="9" fill="#1E468A"/>
<rect x="9" y="644" width="1" height="9" transform="rotate(90 9 644)" fill="#1E468A"/>
<rect x="44" y="640" width="1" height="9" fill="#1E468A"/>
<rect x="49" y="644" width="1" height="9" transform="rotate(90 49 644)" fill="#1E468A"/>
<rect x="84" y="640" width="1" height="9" fill="#1E468A"/>
<rect x="89" y="644" width="1" height="9" transform="rotate(90 89 644)" fill="#1E468A"/>
<rect x="124" y="640" width="1" height="9" fill="#1E468A"/>
<rect x="129" y="644" width="1" height="9" transform="rotate(90 129 644)" fill="#1E468A"/>
<rect x="164" y="640" width="1" height="9" fill="#1E468A"/>
<rect x="169" y="644" width="1" height="9" transform="rotate(90 169 644)" fill="#1E468A"/>
<rect x="204" y="640" width="1" height="9" fill="#1E468A"/>
<rect x="209" y="644" width="1" height="9" transform="rotate(90 209 644)" fill="#1E468A"/>
<rect x="244" y="640" width="1" height="9" fill="#1E468A"/>
<rect x="249" y="644" width="1" height="9" transform="rotate(90 249 644)" fill="#1E468A"/>
<rect x="284" y="640" width="1" height="9" fill="#1E468A"/>
<rect x="289" y="644" width="1" height="9" transform="rotate(90 289 644)" fill="#1E468A"/>
<rect x="324" y="640" width="1" height="9" fill="#1E468A"/>
<rect x="329" y="644" width="1" height="9" transform="rotate(90 329 644)" fill="#1E468A"/>
<rect x="364" y="640" width="1" height="9" fill="#1E468A"/>
<rect x="369" y="644" width="1" height="9" transform="rotate(90 369 644)" fill="#1E468A"/>
<rect x="404" y="640" width="1" height="9" fill="#1E468A"/>
<rect x="409" y="644" width="1" height="9" transform="rotate(90 409 644)" fill="#1E468A"/>
<rect x="444" y="640" width="1" height="9" fill="#1E468A"/>
<rect x="449" y="644" width="1" height="9" transform="rotate(90 449 644)" fill="#1E468A"/>
<rect x="484" y="640" width="1" height="9" fill="#1E468A"/>
<rect x="489" y="644" width="1" height="9" transform="rotate(90 489 644)" fill="#1E468A"/>
<rect x="524" y="640" width="1" height="9" fill="#1E468A"/>
<rect x="529" y="644" width="1" height="9" transform="rotate(90 529 644)" fill="#1E468A"/>
<rect x="564" y="640" width="1" height="9" fill="#1E468A"/>
<rect x="569" y="644" width="1" height="9" transform="rotate(90 569 644)" fill="#1E468A"/>
<rect x="604" y="640" width="1" height="9" fill="#1E468A"/>
<rect x="609" y="644" width="1" height="9" transform="rotate(90 609 644)" fill="#1E468A"/>
<rect x="4" y="680" width="1" height="9" fill="#1E468A"/>
<rect x="9" y="684" width="1" height="9" transform="rotate(90 9 684)" fill="#1E468A"/>
<rect x="44" y="680" width="1" height="9" fill="#1E468A"/>
<rect x="49" y="684" width="1" height="9" transform="rotate(90 49 684)" fill="#1E468A"/>
<rect x="84" y="680" width="1" height="9" fill="#1E468A"/>
<rect x="89" y="684" width="1" height="9" transform="rotate(90 89 684)" fill="#1E468A"/>
<rect x="124" y="680" width="1" height="9" fill="#1E468A"/>
<rect x="129" y="684" width="1" height="9" transform="rotate(90 129 684)" fill="#1E468A"/>
<rect x="164" y="680" width="1" height="9" fill="#1E468A"/>
<rect x="169" y="684" width="1" height="9" transform="rotate(90 169 684)" fill="#1E468A"/>
<rect x="204" y="680" width="1" height="9" fill="#1E468A"/>
<rect x="209" y="684" width="1" height="9" transform="rotate(90 209 684)" fill="#1E468A"/>
<rect x="244" y="680" width="1" height="9" fill="#1E468A"/>
<rect x="249" y="684" width="1" height="9" transform="rotate(90 249 684)" fill="#1E468A"/>
<rect x="284" y="680" width="1" height="9" fill="#1E468A"/>
<rect x="289" y="684" width="1" height="9" transform="rotate(90 289 684)" fill="#1E468A"/>
<rect x="324" y="680" width="1" height="9" fill="#1E468A"/>
<rect x="329" y="684" width="1" height="9" transform="rotate(90 329 684)" fill="#1E468A"/>
<rect x="364" y="680" width="1" height="9" fill="#1E468A"/>
<rect x="369" y="684" width="1" height="9" transform="rotate(90 369 684)" fill="#1E468A"/>
<rect x="404" y="680" width="1" height="9" fill="#1E468A"/>
<rect x="409" y="684" width="1" height="9" transform="rotate(90 409 684)" fill="#1E468A"/>
<rect x="444" y="680" width="1" height="9" fill="#1E468A"/>
<rect x="449" y="684" width="1" height="9" transform="rotate(90 449 684)" fill="#1E468A"/>
<rect x="484" y="680" width="1" height="9" fill="#1E468A"/>
<rect x="489" y="684" width="1" height="9" transform="rotate(90 489 684)" fill="#1E468A"/>
<rect x="524" y="680" width="1" height="9" fill="#1E468A"/>
<rect x="529" y="684" width="1" height="9" transform="rotate(90 529 684)" fill="#1E468A"/>
<rect x="564" y="680" width="1" height="9" fill="#1E468A"/>
<rect x="569" y="684" width="1" height="9" transform="rotate(90 569 684)" fill="#1E468A"/>
<rect x="604" y="680" width="1" height="9" fill="#1E468A"/>
<rect x="609" y="684" width="1" height="9" transform="rotate(90 609 684)" fill="#1E468A"/>
</g>
</svg>
